<svg width="164" height="197" viewBox="0 0 164 197" fill="none" xmlns="http://www.w3.org/2000/svg">
<g id="Group 4">
<path id="Vector" d="M136.435 0H0V170.544H136.435V0Z" fill="#9B51E0"/>
<path id="Vector_2" d="M38.738 14.3744H9.50183V33.8652H38.738V14.3744Z" fill="white"/>
<path id="Vector_3" d="M122.792 52.3815H9.74536V59.2033H122.792V52.3815Z" fill="white"/>
<path id="Vector_4" d="M122.792 70.4104H9.74536V77.2322H122.792V70.4104Z" fill="white"/>
<path id="Vector_5" d="M122.792 88.4395H9.74536V95.2612H122.792V88.4395Z" fill="white"/>
<path id="Vector_6" d="M122.792 106.468H9.74536V113.29H122.792V106.468Z" fill="white"/>
<path id="Vector_7" d="M122.792 124.497H9.74536V131.319H122.792V124.497Z" fill="white"/>
<path id="Vector_8" d="M162.235 170.3C162.23 176.495 159.988 182.48 155.923 187.155C151.859 191.829 146.243 194.881 140.109 195.747C133.975 196.614 127.734 195.237 122.533 191.871C117.333 188.505 113.521 183.376 111.8 177.425C110.078 171.474 110.562 165.101 113.162 159.478C115.762 153.855 120.304 149.36 125.953 146.817C131.602 144.275 137.979 143.856 143.912 145.639C149.845 147.421 154.936 151.284 158.248 156.519C160.854 160.643 162.236 165.422 162.235 170.3Z" fill="#EB5757" stroke="white" stroke-width="2"/>
<path id="Shape" fill-rule="evenodd" clip-rule="evenodd" d="M145.956 158.363L136.865 167.455L127.773 158.363L124.743 161.394L133.834 170.485L124.743 179.577L127.773 182.607L136.865 173.516L145.956 182.607L148.986 179.577L139.895 170.485L148.986 161.394L145.956 158.363V158.363Z" fill="white"/>
</g>
</svg>
