<svg width="207" height="144" viewBox="0 0 207 144" fill="none" xmlns="http://www.w3.org/2000/svg">
<path d="M206.211 57.0697C205.834 56.7816 205.394 56.5889 204.927 56.508C204.434 56.3952 203.932 56.3243 203.432 56.2456L196.954 55.3138C196.3 55.1927 195.633 55.1574 194.97 55.2088C194.637 55.236 194.313 55.3289 194.017 55.4821C193.721 55.6353 193.458 55.8458 193.244 56.1012C193.051 56.3389 192.945 56.6352 192.944 56.9411C192.98 57.249 193.08 57.5458 193.239 57.8125C193.301 57.9371 193.355 58.0661 193.399 58.1983C193.461 58.4952 193.538 58.7887 193.631 59.0776C193.659 59.1402 193.696 59.1985 193.741 59.2509C193.742 59.2657 193.742 59.2806 193.741 59.2955C193.67 59.6577 193.899 60.0356 193.796 60.3847C193.707 60.6839 193.415 60.8651 193.231 61.1144C193.108 61.2913 193.04 61.5003 193.035 61.7154C193.03 61.9306 193.089 62.1424 193.204 62.3244C193.402 62.6288 193.759 62.8362 193.862 63.1853C193.996 63.6446 193.633 64.0882 193.31 64.4425C192.714 65.0948 192.164 65.7867 191.662 66.5134C191.521 66.6921 191.431 66.905 191.399 67.1302C191.37 67.5869 191.81 67.9885 191.733 68.4426C191.673 68.7995 191.323 69.0174 191.02 69.23C189.902 69.9649 189.005 71.146 188.915 72.482C188.628 70.3564 187.745 68.3549 186.368 66.7076C185.992 66.2562 185.579 65.8021 185.424 65.2299C185.366 65.0016 185.355 64.7575 185.276 64.537C185.013 63.8415 184.176 63.5422 183.811 62.9018C183.548 62.4504 183.548 61.8703 183.221 61.474C182.895 61.0777 182.382 60.9884 182.1 60.6052C181.96 60.3456 181.84 60.0753 181.743 59.7968C181.625 59.5697 181.458 59.3709 181.256 59.2141C181.217 59.1831 181.177 59.1542 181.135 59.1275C181.178 59.0885 181.213 59.0408 181.237 58.9874C181.262 58.9341 181.274 58.8763 181.274 58.8178C181.274 58.5107 180.969 58.3086 180.703 58.1564C180.361 57.9621 180.027 57.7521 179.701 57.5343C180.057 57.369 180.365 57.1172 180.598 56.802C180.89 56.3319 181.011 55.7757 180.94 55.2272C180.922 54.7845 180.756 54.3604 180.469 54.0224C180.303 53.8466 180.095 53.7206 179.922 53.5552C179.472 53.1169 179.319 52.4686 179.132 51.8702C178.885 51.0828 178.498 50.256 177.777 49.8387C177.43 49.6366 177.025 49.5421 176.685 49.3295C176.346 49.1169 176.062 48.7153 176.18 48.3295C176.259 48.067 176.504 47.8859 176.67 47.6628C176.867 47.3743 176.943 47.0196 176.881 46.6757C176.818 46.3317 176.622 46.0262 176.335 45.8255C176.141 45.7021 175.901 45.5945 175.862 45.3688C175.709 45.3293 175.571 45.2478 175.463 45.1336C175.355 45.0194 175.282 44.8771 175.251 44.7231C175.192 44.4144 175.192 44.0974 175.251 43.7887C175.32 43.3005 175.387 42.8141 175.454 42.3294C175.57 42.3775 175.694 42.4022 175.82 42.4022C175.945 42.4022 176.069 42.3775 176.185 42.3294C176.413 42.698 176.678 43.0427 176.975 43.3583C177.776 44.3021 178.4 45.3824 178.817 46.5473C178.967 46.9672 179.119 47.4371 179.509 47.6602C179.643 47.7363 179.795 47.7756 179.927 47.857C180.089 47.9698 180.229 48.1123 180.337 48.277C180.653 48.6943 180.969 49.109 181.282 49.5263L181.298 49.5893C181.306 49.6263 181.321 49.6617 181.34 49.6943C181.398 49.7597 181.479 49.801 181.566 49.8098C182.535 50.0329 183.621 50.2376 184.461 49.7101C185.218 49.2376 185.55 48.3032 186.192 47.6785C186.647 47.235 187.292 46.8911 187.421 46.2664C187.267 46.2192 187.116 46.164 186.968 46.1011C187.1 45.9699 187.231 45.8176 187.41 45.6444C187.67 45.3905 187.905 45.1118 188.11 44.8124C188.332 44.4429 188.509 44.0481 188.636 43.6365C189.143 42.1947 189.652 40.7519 190.163 39.3084C190.405 38.6259 190.647 37.9383 190.952 37.2742C191.268 36.555 191.641 35.8647 191.986 35.1587C192.876 33.3225 193.562 31.3951 194.033 29.4106C194.117 29.1398 194.144 28.855 194.115 28.5733C194.041 28.1192 193.696 27.7623 193.367 27.4394C193.037 27.0823 192.66 26.7707 192.247 26.5129C192.039 26.3842 191.808 26.298 191.567 26.2592C191.325 26.2205 191.079 26.23 190.841 26.2872C190.168 26.4841 189.744 27.1717 189.589 27.862C189.434 28.5523 189.492 29.2636 189.426 29.9618C189.331 30.9723 188.984 31.9487 188.9 32.9618C188.855 33.5471 188.9 34.1403 188.829 34.7256C188.699 35.4916 188.432 36.2279 188.039 36.8989C187.186 38.4991 186.031 39.9197 184.637 41.0827C184.476 41.2165 184.311 41.3451 184.153 41.4895C184.153 41.3766 184.171 41.2611 184.187 41.1483C184.072 41.178 183.961 41.2175 183.853 41.2664C183.866 41.1338 183.853 41 183.813 40.8727C183.603 40.2454 182.666 40.0853 182.498 39.4475C182.47 39.2897 182.455 39.13 182.453 38.9698C182.398 38.4107 182.016 37.9383 181.885 37.3949C181.764 36.8936 181.856 36.3451 181.622 35.8805C181.422 35.59 181.187 35.3255 180.922 35.0931C180.605 34.7328 180.378 34.3042 180.256 33.8411C180.222 33.7125 180.19 33.5786 180.153 33.45C180.193 33.1588 180.161 32.8622 180.059 32.5865C179.819 31.9933 179.201 31.6127 178.977 31.0117C178.803 30.5445 178.88 29.9618 178.551 29.5996C178.376 29.4265 178.162 29.2978 177.927 29.2242C176.723 28.7564 175.459 28.4587 174.172 28.3397C173.451 28.2741 172.657 28.2374 172.141 27.7308C171.539 27.1429 171.51 26.0851 170.804 25.631C170.183 25.2294 169.305 25.526 168.823 26.0903C168.751 26.1734 168.684 26.261 168.623 26.3528C168.535 26.001 168.516 25.6356 168.568 25.2767C168.568 25.1874 168.586 25.0956 168.594 25.0142C169.782 24.6269 170.793 23.8305 171.446 22.7675C171.446 22.7675 171.446 22.7675 171.446 22.7832L171.478 22.8646C171.554 23.0562 171.675 23.2399 171.854 23.2609C171.973 23.2595 172.088 23.2178 172.181 23.1428C172.339 23.0328 172.486 22.906 172.617 22.7648C172.684 22.6914 172.747 22.6152 172.807 22.5365C172.928 22.3726 173.032 22.1967 173.117 22.0116C173.248 21.733 173.337 21.4367 173.38 21.1323C173.428 20.8278 173.433 20.5155 173.486 20.211C173.535 19.9753 173.599 19.743 173.678 19.5155C173.704 19.4393 173.73 19.3632 173.754 19.2871C173.778 19.211 173.812 19.1086 173.838 19.0246C174.003 18.4848 174.092 17.9248 174.101 17.3606C174.101 17.2661 174.101 17.1716 174.101 17.0771C174.092 16.7089 174.009 16.3463 173.857 16.0105C173.705 15.6748 173.488 15.3726 173.217 15.1217C172.765 14.7516 172.165 14.5968 171.833 14.0954C171.618 13.7595 171.57 13.3264 171.444 12.9327C171.307 12.4615 171.041 12.0379 170.676 11.71C170.31 11.382 169.86 11.1627 169.376 11.077C168.793 11.0133 168.207 11.1738 167.739 11.5259V11.5259L167.702 11.5547C167.441 11.7535 167.22 11.9992 167.05 12.2792C166.702 12.1836 166.384 12.0032 166.123 11.7542C165.86 11.5101 165.658 11.203 165.392 10.9668C165.144 10.7399 164.839 10.5837 164.509 10.5144C164.18 10.4452 163.838 10.4655 163.519 10.5731C163.19 10.7044 162.897 10.9115 162.664 11.1775C162.432 11.4435 162.265 11.7608 162.179 12.1033C162.034 12.644 162.061 13.266 161.758 13.7175C161.524 14.0692 161.14 14.2424 160.871 14.5626C160.705 14.7654 160.591 15.0061 160.54 15.2634V15.2634C160.508 15.4073 160.493 15.5544 160.495 15.7018V15.7018C160.495 15.7674 160.495 15.833 160.511 15.896C160.511 15.896 160.511 15.917 160.511 15.9275C160.52 15.9994 160.535 16.0705 160.556 16.1401V16.1401C160.631 16.4062 160.765 16.652 160.948 16.8593C161.121 17.0577 161.338 17.214 161.582 17.316C161.682 17.3546 161.783 17.3871 161.887 17.4131L162.2 17.4839L162.311 17.5102C161.933 18.2179 161.723 19.0027 161.698 19.8041C161.672 20.6055 161.831 21.4021 162.163 22.1323C162.163 22.2058 162.145 22.2793 162.137 22.3528C162.094 23.3863 162.14 24.4216 162.274 25.4473C162.311 25.8541 162.332 26.3029 162.082 26.6258C161.968 26.7528 161.84 26.8664 161.7 26.9644C161.842 26.7806 161.987 26.5995 162.134 26.4184C161.763 26.0457 161.177 25.9985 160.65 26.0352C159.632 26.1111 158.643 26.4124 157.756 26.9171C157.167 27.2557 156.561 27.7045 155.888 27.6258C155.491 27.5812 155.098 27.3633 154.712 27.4683C154.494 27.557 154.291 27.6773 154.109 27.8253C153.965 27.9282 153.792 27.9817 153.614 27.9775C153.201 27.4709 152.562 27.1271 152.067 26.715C151.504 26.2151 150.989 25.6642 150.528 25.0693C149.675 24.0431 148.826 23.0142 147.989 21.9774C147.284 21.106 146.56 20.1638 146.436 19.0483C146.424 18.9376 146.418 18.8263 146.418 18.7149C146.435 18.1849 146.502 17.6576 146.618 17.1401C146.649 17.0151 146.649 16.8845 146.618 16.7595C146.539 16.497 146.236 16.3999 145.976 16.3422C146.01 16.1401 146.034 15.9327 146.047 15.7359C146.194 13.4786 146.034 11.1847 146.513 8.97465C146.694 8.12425 146.992 7.26334 147.605 6.64654C148.565 5.67802 150.173 5.44442 150.91 4.29743C151.525 3.34203 151.281 1.99031 150.507 1.14778C149.733 0.305251 148.541 -0.0385851 147.407 0.00341021C147.089 -0.00748476 146.775 0.0765929 146.505 0.244883C146.252 0.468493 146.064 0.754597 145.958 1.07429L144.829 3.81185C144.501 4.52459 144.225 5.2596 144.003 6.01136C143.687 7.16098 143.616 8.37359 143.366 9.53371C143.366 10.4261 142.789 11.539 142.474 12.3605C142.121 13.2844 141.74 14.1978 141.421 15.1401C141.342 15.3763 141.066 16.0771 140.895 16.7149C140.83 16.7524 140.77 16.7974 140.716 16.8488C140.579 17.0244 140.454 17.2095 140.342 17.4026C140.103 17.7175 139.714 17.8855 139.45 18.19C139.187 18.4944 139.132 19.0535 139.498 19.2057C139.572 19.2306 139.649 19.2474 139.727 19.2556C139.775 19.2596 139.822 19.2675 139.869 19.2792C140.264 19.3895 140.419 19.8855 140.361 20.295C140.303 20.7044 140.098 21.0824 140.064 21.4919C139.992 22.2163 140.419 22.8908 140.829 23.4998C141.254 24.1599 141.724 24.7904 142.234 25.3869C142.605 25.8016 143.024 26.1743 143.397 26.5733C144.821 28.0326 145.952 29.7387 147.231 31.324C147.691 31.9223 148.214 32.4697 148.791 32.9566C149.168 33.2507 149.563 33.5215 149.973 33.7676L152.173 35.1587C152.422 35.3411 152.704 35.4738 153.004 35.5498C153.102 35.5629 153.201 35.5629 153.299 35.5498C153.312 35.6154 153.322 35.6784 153.338 35.744C153.509 36.4317 153.885 37.0564 153.928 37.7571C153.97 38.4579 153.907 39.1745 153.957 39.8832C154.004 40.5367 154.149 41.1955 154.185 41.8386C154.259 43.0774 153.954 44.3005 153.659 45.5132C153.215 47.2875 152.946 49.0985 152.08 50.7074C151.838 51.151 151.554 51.6025 151.554 52.109C151.554 52.1694 151.554 52.2324 151.57 52.2928L151.175 52.5159C151.06 52.5815 150.944 52.6471 150.839 52.7153C150.339 53.0408 149.804 53.4004 149.599 53.9621C149.433 54.4162 149.51 54.9358 149.31 55.3768C149.3 55.3966 149.29 55.4158 149.278 55.4345C149.068 55.844 148.649 56.1485 148.555 56.5973C148.484 56.9411 148.62 57.306 148.555 57.6472C148.555 57.6472 148.555 57.6472 148.555 57.6603C148.495 57.8317 148.447 58.0071 148.412 58.1852C148.41 58.2434 148.415 58.3017 148.428 58.3585C148.478 58.5573 148.589 58.736 148.744 58.8703C148.839 58.961 148.942 59.0428 149.052 59.1144C149.164 59.1879 149.28 59.2561 149.399 59.3191L149.468 59.3558C149.568 59.4083 149.668 59.4582 149.77 59.5055L149.839 59.5343C149.957 59.5868 150.078 59.6341 150.199 59.6761L150.283 59.7023C150.378 59.7338 150.475 59.7627 150.573 59.7863L150.639 59.8073L150.699 59.8204L150.962 59.8755L151.06 59.8939C151.175 59.9132 151.294 59.9289 151.415 59.9412H151.52C151.609 59.9412 151.696 59.9543 151.783 59.9569H151.907C151.999 59.9569 152.088 59.9569 152.17 59.9569H152.265C152.388 59.9569 152.512 59.9385 152.636 59.9228H152.675C152.786 59.907 152.896 59.8887 153.007 59.865L153.091 59.8467C153.193 59.823 153.296 59.7994 153.399 59.7679L153.454 59.7522C153.578 59.7154 153.701 59.6761 153.822 59.6288C154.241 59.4571 154.647 59.2563 155.038 59.0278C155.301 58.8834 155.564 58.7364 155.827 58.6026C156.022 58.5045 156.223 58.4168 156.427 58.3401C156.925 58.128 157.466 58.038 158.006 58.0776C158.272 58.1138 158.536 58.1673 158.795 58.2377C158.795 58.2666 158.795 58.2955 158.795 58.3243C159.009 59.5842 159.221 60.8441 159.43 62.1039C159.774 61.8565 160.138 61.6379 160.519 61.4504C160.448 61.6406 160.401 61.839 160.379 62.0409C160.364 62.1971 160.364 62.3545 160.379 62.5107C160.403 62.7601 160.456 63.0357 160.306 63.2325C160.214 63.3533 160.043 63.4215 159.993 63.558C159.956 63.6975 159.947 63.8429 159.966 63.9858C159.956 64.149 159.886 64.3028 159.771 64.4194C159.657 64.536 159.503 64.6075 159.34 64.621C159.415 64.8323 159.417 65.0627 159.345 65.2751C159.273 65.4875 159.131 65.6695 158.943 65.7916C158.833 65.8444 158.73 65.9115 158.638 65.9911C158.548 66.1071 158.487 66.2431 158.461 66.3874C158.113 67.6872 157.398 68.8598 156.401 69.7654C156.027 70.0587 155.685 70.3913 155.383 70.7576C155.196 71.0412 155.041 71.3449 154.922 71.6631C154.221 73.3744 153.508 75.0866 152.786 76.7996C152.386 77.7576 151.996 78.7314 151.87 79.7629C151.554 82.5924 149.028 84.9913 149.502 87.7998C149.598 88.5013 149.881 89.1641 150.323 89.7184C150.849 90.351 151.638 90.7132 152.428 91.0072C154.456 91.7946 156.596 92.225 158.727 92.6581L162.074 93.3431C162.731 93.4938 163.397 93.5991 164.068 93.6581C164.876 93.7132 165.705 93.6371 166.492 93.8418C166.979 93.9678 167.444 94.2014 167.947 94.2277C168.378 94.2513 168.91 94.1594 169.165 94.5111C169.42 94.8629 169.223 95.3274 169.465 95.6398C169.855 96.1358 170.804 95.6397 171.228 96.1069C171.344 96.2864 171.432 96.4818 171.491 96.687C171.556 96.8139 171.645 96.9264 171.754 97.0177C171.78 97.1659 171.791 97.3163 171.786 97.4665C171.731 98.0761 171.604 98.677 171.407 99.2566C171.091 100.322 170.776 101.389 170.462 102.456C170.343 102.833 170.255 103.219 170.199 103.611C170.179 103.801 170.179 103.993 170.199 104.183C170.255 104.763 170.589 105.362 171.144 105.551C171.575 105.664 172.033 105.608 172.423 105.393C172.799 105.197 173.152 104.959 173.475 104.684C174.058 104.245 174.57 103.719 174.993 103.125C176.309 101.162 175.883 98.5059 176.806 96.3353C177.419 94.8865 178.614 93.7106 179.011 92.183C179.104 91.8924 179.115 91.5818 179.043 91.2854C178.877 90.7604 178.317 90.4612 177.793 90.2722H177.769C177.339 90.1195 176.9 89.9941 176.454 89.8969C176.343 89.8733 176.23 89.8549 176.117 89.8365C175.867 89.6333 175.667 89.3745 175.535 89.0806C175.515 88.9244 175.473 88.7717 175.412 88.6265C175.37 88.564 175.314 88.5123 175.248 88.4758C175.182 88.4393 175.108 88.419 175.033 88.4166C174.77 88.3903 174.417 88.4848 174.13 88.4638C173.544 88.4218 173.154 87.847 172.628 87.5819C172.102 87.3168 171.531 87.3824 170.97 87.4218C170.77 87.4491 170.566 87.4367 170.37 87.3851C170.137 87.2777 169.923 87.1312 169.739 86.952C169.415 86.7006 169.037 86.5278 168.635 86.4472C168.232 86.3665 167.817 86.3803 167.421 86.4874C167.169 86.5888 166.902 86.6491 166.631 86.6659C166.118 86.637 165.755 86.1803 165.376 85.8339C164.339 84.8863 162.863 84.637 161.606 84.0149C161.413 83.9435 161.253 83.8057 161.153 83.6265C161.008 83.2695 161.335 82.9126 161.629 82.6685L163.792 80.8758C166.16 78.9125 169.12 77.4348 170.22 74.5555C170.335 74.1695 170.513 73.805 170.747 73.4768C170.832 73.3766 170.93 73.2883 171.039 73.2143C171.517 72.905 172.097 72.7922 172.657 72.8993C173.339 73.0517 173.986 73.3332 174.562 73.7287C175.504 74.2974 176.42 74.9098 177.312 75.566C178.194 76.1953 179.034 76.8827 179.824 77.6238C181.206 78.9361 182.356 80.4926 183.642 81.9073C184.929 83.322 186.4 84.6422 188.187 85.3194C189.973 85.9966 192.133 85.9677 193.667 84.8312C195.438 83.5189 196.007 81.1724 196.454 79.0201C197.441 78.07 197.738 76.6238 198.219 75.3455C198.522 74.5345 198.909 73.7707 199.235 72.9623C199.625 72.0122 199.93 71.0305 200.235 70.0515C200.581 69.0684 200.816 68.0498 200.935 67.0147C201.061 65.3795 200.622 63.6394 201.082 62.1039C201.69 61.97 202.243 61.6288 202.84 61.4294C203.729 61.138 204.682 61.1853 205.624 61.1905H205.684C206.009 61.225 206.336 61.1481 206.611 60.9727C206.926 60.7102 206.976 60.2614 206.992 59.8545C207.029 58.8493 206.966 57.7207 206.211 57.0697ZM168.086 12.2975C167.869 12.3512 167.644 12.3672 167.421 12.3448L168.086 12.2975Z" fill="url(#paint0_linear)"/>
<path d="M169.123 28.9014C168.804 29.1714 168.431 29.3692 168.028 29.4815L166.163 30.1482C165.15 30.5104 164.092 30.8752 163.024 30.744C162.426 30.6705 159.866 30.2951 159.479 29.8306C158.89 29.1114 160.956 28.0536 161.661 27.4473C161.821 27.3327 161.969 27.2026 162.103 27.0589C162.366 26.7387 162.332 26.2898 162.295 25.8856C162.161 24.8616 162.115 23.8281 162.158 22.7963C162.179 22.5504 162.214 22.3058 162.263 22.064C162.526 20.8567 163.653 21.2976 164.542 21.6178C165.613 21.9647 166.648 22.4121 167.634 22.9538C167.934 23.1083 168.195 23.3291 168.397 23.5995C168.786 24.1874 168.631 24.9591 168.568 25.6993C168.513 26.2741 168.515 26.8253 168.876 27.2426C169.057 27.4022 169.224 27.5779 169.373 27.7675C169.457 27.9586 169.478 28.1714 169.433 28.3752C169.388 28.579 169.28 28.7633 169.123 28.9014Z" fill="#BE6F72"/>
<path d="M143.352 9.98517C143.616 8.82243 143.673 7.62295 143.989 6.4707C144.212 5.72151 144.488 4.98912 144.815 4.27907L145.976 1.57826C146.082 1.25935 146.271 0.974108 146.523 0.751472C146.794 0.584349 147.108 0.500368 147.426 0.509999C148.56 0.468004 149.752 0.819716 150.525 1.65175C151.299 2.48378 151.544 3.83025 150.928 4.78302C150.191 5.93001 148.583 6.16099 147.623 7.12688C147.01 7.74368 146.713 8.60196 146.531 9.44974C146.052 11.6545 146.213 13.9406 146.065 16.1926C146.018 16.8934 145.881 17.6939 145.276 18.0561C144.91 18.2349 144.503 18.3137 144.097 18.2845L142.371 18.3134C142.082 18.3134 141.032 18.4945 140.84 18.2766C140.503 17.896 141.271 16.001 141.411 15.5784C141.721 14.6414 142.103 13.728 142.463 12.8067C142.776 11.9852 143.352 10.8749 143.352 9.98517Z" fill="#BE6F72"/>
<path d="M178.993 92.4429C178.596 93.96 177.401 95.1411 176.788 96.5873C175.864 98.7527 176.28 101.401 174.975 103.359C174.552 103.954 174.04 104.48 173.457 104.921C173.134 105.195 172.781 105.432 172.404 105.627C172.014 105.841 171.556 105.898 171.125 105.784C170.57 105.595 170.236 104.997 170.181 104.419C170.161 104.23 170.161 104.039 170.181 103.85C170.236 103.459 170.324 103.074 170.444 102.698C170.76 101.635 171.075 100.572 171.389 99.506C171.585 98.928 171.712 98.3289 171.767 97.7212C171.802 97.0597 171.381 96.1988 171.56 95.582C171.641 95.3038 171.946 95.0571 172.086 94.8235C172.284 94.4873 172.436 94.1263 172.538 93.75C172.754 93.0177 172.902 92.2355 173.354 91.6187C173.649 91.2529 173.995 90.9304 174.38 90.6607C174.665 90.4119 174.998 90.2251 175.359 90.1121C175.709 90.0507 176.069 90.0677 176.412 90.162C176.858 90.2571 177.297 90.3816 177.727 90.5347H177.751C178.277 90.7237 178.835 91.015 179.001 91.5452C179.081 91.8394 179.079 92.1501 178.993 92.4429V92.4429Z" fill="#3F3D56"/>
<path d="M206.989 60.1747C206.973 60.5816 206.923 61.0356 206.608 61.2902C206.333 61.4657 206.006 61.5425 205.681 61.5081H205.61C204.671 61.5081 203.716 61.4556 202.826 61.7469C202.15 61.97 201.529 62.3795 200.824 62.4609C199.853 62.5711 198.94 62.0409 198.08 61.579C197.27 61.1436 196.438 60.7494 195.588 60.3978C195.03 60.1695 193.891 60.0225 193.622 59.4136C193.53 59.1255 193.453 58.8329 193.391 58.5369C193.347 58.4047 193.293 58.2757 193.23 58.1511C193.072 57.8852 192.972 57.5892 192.936 57.2823C192.937 56.9764 193.042 56.6801 193.235 56.4424C193.45 56.189 193.713 55.9803 194.009 55.8285C194.304 55.6767 194.627 55.5847 194.959 55.5579C195.622 55.5065 196.289 55.5418 196.943 55.6629L203.421 56.592C203.921 56.6629 204.424 56.7338 204.916 56.8545C205.383 56.9354 205.824 57.1281 206.2 57.4162C206.965 58.0566 207.029 59.1826 206.989 60.1747Z" fill="#3F3D56"/>
<path d="M201.295 61.8546C200.506 63.516 201.074 65.4819 200.932 67.3192C200.813 68.3517 200.578 69.3677 200.232 70.3481C199.927 71.3245 199.622 72.3035 199.232 73.251C198.906 74.0384 198.519 74.8259 198.217 75.629C197.735 76.9099 197.427 78.3508 196.451 79.3036C196.004 81.4506 195.435 83.7971 193.665 85.0989C192.125 86.2328 189.981 86.2722 188.184 85.5871C186.387 84.9021 184.926 83.5897 183.639 82.175C182.353 80.7603 181.203 79.2196 179.822 77.902C179.03 77.1608 178.189 76.4742 177.303 75.8469C176.412 75.2012 175.496 74.594 174.554 74.0253C173.977 73.6317 173.331 73.3511 172.649 73.1985C172.089 73.0914 171.509 73.2042 171.031 73.5135C170.922 73.5875 170.824 73.6758 170.738 73.776C170.504 74.103 170.326 74.4667 170.212 74.8521C169.107 77.7235 166.142 79.1986 163.774 81.1566L161.611 82.9441C161.316 83.1882 160.99 83.5451 161.134 83.8994C161.234 84.0787 161.394 84.2165 161.587 84.2879C162.845 84.9073 164.321 85.1567 165.358 86.1016C165.736 86.448 166.1 86.9047 166.613 86.931C166.884 86.9151 167.15 86.8557 167.402 86.7551C167.798 86.6483 168.213 86.6344 168.615 86.7145C169.018 86.7947 169.396 86.9667 169.72 87.2171C169.904 87.3963 170.118 87.5428 170.352 87.6502C170.547 87.7018 170.751 87.7142 170.952 87.6869C171.512 87.6475 172.107 87.5977 172.609 87.847C173.112 88.0964 173.525 88.6843 174.112 88.7263C174.399 88.7473 174.741 88.6528 175.014 88.679C175.09 88.6814 175.163 88.7017 175.229 88.7382C175.295 88.7748 175.351 88.8265 175.393 88.889C175.455 89.0333 175.496 89.1851 175.517 89.3405C175.625 89.7106 175.988 89.9363 176.225 90.2407C176.588 90.7079 176.64 91.3431 176.604 91.9337C176.484 93.7803 175.659 95.5108 174.299 96.7684C173.912 97.1623 173.42 97.4359 172.88 97.5558C172.61 97.6121 172.329 97.5824 172.077 97.4708C171.825 97.3591 171.614 97.1713 171.475 96.9337C171.417 96.7294 171.328 96.5348 171.212 96.3563C170.788 95.8917 169.839 96.3852 169.449 95.8891C169.207 95.5794 169.381 95.0833 169.149 94.7631C168.918 94.4429 168.36 94.5006 167.931 94.4823C167.428 94.456 166.963 94.2198 166.476 94.0964C165.686 93.8917 164.86 93.9678 164.052 93.9127C163.381 93.8537 162.715 93.7484 162.058 93.5977L158.711 92.9153C156.58 92.4822 154.44 92.0439 152.412 91.2696C151.636 90.9757 150.854 90.6135 150.307 89.9835C149.866 89.43 149.582 88.7681 149.486 88.0675C149.01 85.2669 151.536 82.8732 151.854 80.0516C151.967 79.0228 152.38 78.0516 152.77 77.0962C153.484 75.3884 154.196 73.6797 154.906 71.9702C155.021 71.6519 155.171 71.3473 155.354 71.062C155.656 70.6966 155.998 70.3649 156.372 70.0725C157.369 69.1699 158.084 67.9999 158.432 66.7024C158.458 66.558 158.518 66.422 158.608 66.3061C158.702 66.2282 158.804 66.1621 158.914 66.1092C159.102 65.9872 159.243 65.8057 159.315 65.5938C159.387 65.382 159.386 65.1522 159.311 64.9412C159.474 64.9277 159.627 64.8562 159.742 64.7396C159.857 64.6231 159.926 64.4692 159.937 64.306C159.918 64.164 159.927 64.0195 159.963 63.8808C160.027 63.7444 160.185 63.6761 160.277 63.5554C160.427 63.3585 160.374 63.0829 160.35 62.8362C160.334 62.68 160.334 62.5226 160.35 62.3664C160.408 61.8106 160.657 61.292 161.055 60.8992C161.684 60.2824 162.579 60.4425 163.447 60.2955C164.313 60.109 165.159 59.8392 165.973 59.4897C168.256 58.5923 170.66 58.0377 173.107 57.844C175.565 57.6512 178.034 58.0434 180.311 58.9884C180.642 59.1222 180.954 59.2987 181.24 59.5133C181.442 59.6691 181.608 59.8671 181.727 60.0934C181.824 60.3713 181.943 60.6407 182.084 60.8992C182.366 61.2824 182.897 61.4057 183.205 61.768C183.513 62.1302 183.539 62.7417 183.795 63.1906C184.16 63.831 185.008 64.1276 185.26 64.8231C185.339 65.0436 185.35 65.2851 185.408 65.5134C185.55 66.0856 185.976 66.537 186.352 66.9885C187.732 68.6343 188.615 70.6365 188.899 72.7628C188.984 71.4321 189.881 70.2536 191.004 69.5187C191.307 69.3219 191.657 69.104 191.717 68.747C191.794 68.2956 191.354 67.894 191.383 67.4347C191.415 67.2104 191.506 66.9986 191.646 66.8205C192.148 66.0955 192.698 65.4054 193.294 64.7549C193.617 64.4005 193.98 63.9675 193.846 63.5003C193.743 63.1512 193.386 62.9465 193.188 62.642C193.073 62.4605 193.014 62.2491 193.019 62.0343C193.024 61.8196 193.092 61.611 193.215 61.4346C193.399 61.1853 193.691 61.0042 193.78 60.7076C193.883 60.3585 193.654 59.9805 193.725 59.621C193.821 59.333 194.012 59.086 194.267 58.9202C194.616 58.6031 195.013 58.3427 195.443 58.1485C196.138 57.886 196.912 57.9831 197.648 58.0855C198.88 58.2561 200.261 58.5186 200.956 59.5475C201.4 60.1905 201.627 61.1669 201.295 61.8546Z" fill="#65617D"/>
<path opacity="0.1" d="M206.989 60.1748C206.973 60.5816 206.923 61.0357 206.608 61.2903C206.333 61.4657 206.006 61.5426 205.681 61.5081H205.61C205.718 60.9622 206.384 60.6499 206.5 60.096C206.52 59.9259 206.504 59.7536 206.454 59.5897C206.404 59.4257 206.321 59.2738 206.21 59.1433C205.647 58.3847 204.742 57.9648 203.842 57.6577C201.3 56.7882 198.576 56.5849 195.933 57.0671C195.214 57.1839 194.514 57.3985 193.854 57.7049C193.635 57.8415 193.424 57.9905 193.222 58.1511C193.065 57.8852 192.964 57.5893 192.928 57.2823C192.929 56.9764 193.035 56.6801 193.228 56.4424C193.442 56.189 193.705 55.9803 194.001 55.8285C194.297 55.6767 194.62 55.5847 194.951 55.5579C195.614 55.5065 196.281 55.5418 196.935 55.6629L203.413 56.592C203.913 56.6629 204.416 56.7338 204.908 56.8545C205.375 56.9354 205.816 57.1281 206.192 57.4162C206.965 58.0566 207.029 59.1826 206.989 60.1748Z" fill="black"/>
<path opacity="0.1" d="M178.993 92.4428C178.595 93.9599 177.401 95.141 176.788 96.5873C175.864 98.7527 176.28 101.401 174.975 103.359C174.552 103.954 174.04 104.48 173.457 104.921C173.134 105.195 172.781 105.432 172.404 105.627C172.014 105.841 171.556 105.898 171.125 105.784C170.57 105.595 170.236 104.997 170.181 104.419C170.161 104.23 170.161 104.039 170.181 103.85L170.197 103.892C170.426 104.443 170.799 105.02 171.389 105.118C171.61 105.133 171.832 105.104 172.041 105.03C172.25 104.956 172.442 104.841 172.604 104.69C173.472 103.994 173.978 102.957 174.459 101.957C174.836 101.236 175.134 100.477 175.349 99.6923C175.454 99.2461 175.504 98.7894 175.612 98.3432C176.112 96.1752 177.814 94.4061 178.19 92.2092C178.221 92.0581 178.228 91.9032 178.211 91.7499C178.162 91.55 178.086 91.3576 177.985 91.1777C177.894 90.9746 177.826 90.7614 177.785 90.5425C178.311 90.7315 178.869 91.0229 179.035 91.5531C179.103 91.8479 179.088 92.1557 178.993 92.4428Z" fill="black"/>
<path opacity="0.1" d="M175.02 88.679C174.776 89.3141 174.366 89.8724 173.833 90.2959C173.084 90.8651 172.207 91.2435 171.278 91.3982C170.846 91.5082 170.392 91.5028 169.962 91.3825C169.378 91.1804 168.957 90.6344 168.36 90.4769C167.934 90.3615 167.476 90.4638 167.044 90.4008C166.268 90.2932 165.665 89.7027 165.039 89.2302C163.121 87.7919 160.603 87.3273 158.685 85.889C158.599 85.8367 158.529 85.7635 158.479 85.6764C158.443 85.5821 158.429 85.4804 158.44 85.3798C158.447 84.5073 158.644 83.6468 159.016 82.8574C159.321 82.3067 159.685 81.7902 160.1 81.3167C161.819 79.217 163.545 77.1015 165.602 75.3298C166.465 74.587 167.407 73.8941 168.497 73.5581C169.102 73.3718 170.296 73.1959 171.033 73.5109C170.924 73.5849 170.826 73.6732 170.741 73.7733C170.507 74.1003 170.329 74.4641 170.215 74.8495C169.107 77.7235 166.142 79.1986 163.774 81.1566L161.611 82.9441C161.316 83.1882 160.99 83.5451 161.134 83.8994C161.234 84.0787 161.394 84.2165 161.587 84.2879C162.845 84.9073 164.321 85.1567 165.358 86.1016C165.736 86.448 166.1 86.9047 166.613 86.931C166.884 86.9151 167.15 86.8557 167.402 86.7551C167.798 86.6483 168.213 86.6344 168.615 86.7145C169.018 86.7947 169.396 86.9667 169.72 87.2171C169.904 87.3963 170.118 87.5428 170.352 87.6501C170.547 87.7017 170.751 87.7142 170.952 87.6869C171.512 87.6475 172.107 87.5977 172.609 87.847C173.112 88.0963 173.525 88.6843 174.112 88.7263C174.404 88.7473 174.746 88.6475 175.02 88.679Z" fill="black"/>
<path d="M150.82 53.0566C150.32 53.3768 149.789 53.739 149.583 54.2954C149.415 54.7495 149.494 55.2692 149.291 55.7101C149.089 56.1511 148.633 56.4582 148.533 56.9306C148.462 57.2745 148.602 57.6367 148.533 57.9805C148.474 58.1593 148.426 58.3416 148.389 58.5264C148.362 58.9175 148.699 59.2351 149.028 59.453C149.728 59.9073 150.526 60.1914 151.356 60.2826C152.186 60.3738 153.027 60.2694 153.809 59.9779C154.512 59.7154 155.146 59.2876 155.819 58.9516C156.476 58.5743 157.228 58.3922 157.985 58.4267C158.419 58.4739 158.835 58.6314 159.269 58.6892C159.483 58.7314 159.705 58.721 159.914 58.6588C160.124 58.5967 160.315 58.4846 160.471 58.3322C160.606 58.1476 160.696 57.9348 160.735 57.7102C161.1 56.2692 160.935 54.7416 160.587 53.2928C160.24 51.8439 159.714 50.4502 159.343 49.0093C159.08 47.941 158.877 46.8465 158.437 45.836C157.998 44.8255 157.259 43.8858 156.225 43.5C156.143 43.4601 156.051 43.4481 155.962 43.4659C155.895 43.4936 155.836 43.5368 155.79 43.5919C154.972 44.4566 154.356 45.4909 153.985 46.6208C153.572 47.878 153.459 49.2114 153.08 50.4738C152.917 50.9988 152.707 51.7022 152.291 52.1038C151.875 52.5054 151.291 52.7547 150.82 53.0566Z" fill="#3F3D56"/>
<path opacity="0.1" d="M160.742 57.7023C160.698 57.9277 160.604 58.1403 160.466 58.3243C160.31 58.4772 160.119 58.5894 159.909 58.6512C159.699 58.713 159.478 58.7224 159.264 58.6787C158.832 58.6262 158.416 58.4661 157.982 58.4162C157.225 58.3812 156.473 58.5634 155.817 58.9411C155.143 59.2771 154.501 59.6944 153.804 59.9648C152.784 60.3506 151.669 60.4138 150.612 60.1459C150.05 60.0051 149.517 59.7708 149.033 59.4529C148.702 59.2377 148.368 58.928 148.394 58.5264C148.431 58.3425 148.479 58.161 148.539 57.9831C148.607 57.6393 148.47 57.2771 148.539 56.9332C148.639 56.4608 149.096 56.1458 149.296 55.7101C149.496 55.2744 149.42 54.7521 149.586 54.298C149.791 53.739 150.325 53.3794 150.825 53.0565C151.325 52.7337 151.92 52.487 152.32 52.0959C152.371 52.035 152.418 51.9701 152.459 51.9017C152.748 51.458 152.959 50.9691 153.085 50.4555C153.472 49.1904 153.577 47.8596 153.988 46.5998C154.36 45.4708 154.977 44.4375 155.796 43.5735C155.839 43.5172 155.898 43.4737 155.964 43.4475C156.053 43.4295 156.145 43.4405 156.227 43.479C157.259 43.8675 157.998 44.8071 158.44 45.8176C158.882 46.8281 159.069 47.9174 159.345 48.9883C159.713 50.4292 160.242 51.8282 160.59 53.2744C160.937 54.7206 161.108 56.2587 160.742 57.7023Z" fill="black"/>
<path opacity="0.1" d="M168.568 25.6914C167.331 26.0836 165.992 26.0057 164.809 25.4727C163.625 24.9398 162.681 23.9894 162.158 22.8042C162.179 22.5583 162.214 22.3137 162.263 22.0719C162.527 20.8646 163.653 21.3055 164.542 21.6257C165.613 21.9726 166.648 22.42 167.634 22.9617C167.934 23.1162 168.195 23.337 168.397 23.6074C168.786 24.1875 168.631 24.9591 168.568 25.6914Z" fill="black"/>
<path d="M166.979 25.6757C169.885 25.6757 172.241 23.3254 172.241 20.4263C172.241 17.5271 169.885 15.1768 166.979 15.1768C164.072 15.1768 161.716 17.5271 161.716 20.4263C161.716 23.3254 164.072 25.6757 166.979 25.6757Z" fill="#BE6F72"/>
<path opacity="0.1" d="M181.258 59.6551C181.258 60.0908 180.666 60.2299 180.227 60.2062C178.648 60.1144 177.104 59.6813 175.541 59.8125C173.565 59.991 171.749 61.0803 169.768 61.18C169.005 61.2194 168.228 61.1065 167.476 61.2456C166.502 61.4267 165.634 62.0173 164.642 62.1013C163.782 62.1747 162.932 61.8519 162.071 61.886C161.47 61.9218 160.883 62.0884 160.353 62.3742C160.411 61.8185 160.66 61.2999 161.058 60.907C161.687 60.2902 162.582 60.4503 163.45 60.3034C164.316 60.1169 165.162 59.847 165.976 59.4976C168.259 58.6002 170.663 58.0456 173.109 57.8519C175.566 57.657 178.034 58.0465 180.311 58.9884C180.642 59.1222 180.955 59.2987 181.24 59.5133C181.254 59.5591 181.26 59.6071 181.258 59.6551V59.6551Z" fill="black"/>
<path d="M164.545 30.0117L162.413 29.2242L161.513 28.8935C161.147 28.7402 160.761 28.6378 160.366 28.5891C159.335 28.5103 158.364 29.1954 157.814 30.0694C157.264 30.9434 157.056 31.9854 156.88 33.0012C156.638 34.3905 156.432 35.7851 156.264 37.185C156.083 38.4491 155.99 39.7243 155.988 41.0013C156.048 44.2507 156.738 47.4555 157.496 50.6182C157.867 52.0205 158.147 53.4452 158.335 54.8834C158.398 55.4766 158.427 56.0724 158.49 56.6682C158.559 57.3375 158.669 57.9989 158.78 58.663L159.414 62.4347C160.203 61.8756 161.1 61.3848 162.071 61.3559C162.932 61.3244 163.784 61.6446 164.642 61.5711C165.629 61.4898 166.502 60.8992 167.476 60.7181C168.228 60.579 169.005 60.6892 169.77 60.6525C171.749 60.5527 173.567 59.4609 175.541 59.285C177.106 59.1433 178.661 59.5842 180.229 59.6761C180.666 59.7023 181.258 59.5632 181.258 59.1249C181.258 58.8204 180.953 58.6183 180.687 58.4661C179.435 57.7137 178.243 56.8651 177.122 55.928C176.085 55.1091 175.033 54.2692 174.32 53.1616C172.602 50.4975 173.191 46.8938 171.725 44.0827C170.533 41.7992 171.725 38.807 171.725 36.2322C171.725 34.9487 171.725 33.6495 171.423 32.4028C171.234 31.7055 170.998 31.0215 170.718 30.3555L169.694 27.7701C169.673 27.6946 169.631 27.6264 169.573 27.5733C169.504 27.526 169.422 27.5012 169.339 27.5024C168.724 27.4657 168.118 27.6595 167.639 28.0457C167.157 28.4368 166.85 28.9985 166.376 29.4053C165.858 29.8542 165.189 30.2479 164.545 30.0117Z" fill="#E3E8F4"/>
<path d="M167.984 28.5208C168.152 27.8016 168.334 27.0536 168.815 26.4919C169.297 25.9302 170.176 25.6336 170.797 26.0352C171.502 26.4919 171.531 27.5471 172.133 28.135C172.659 28.6389 173.449 28.6783 174.164 28.7439C175.451 28.8607 176.715 29.1576 177.919 29.6258C178.154 29.6984 178.368 29.8262 178.543 29.9985C178.872 30.3712 178.806 30.9434 178.969 31.408C179.193 32.0064 179.811 32.387 180.051 32.9828C180.314 33.6442 180.051 34.3844 179.83 35.0642C179.432 36.2847 179.182 37.5524 178.795 38.7782C178.409 40.0039 177.859 41.2113 176.954 42.1352C176.554 42.5446 175.959 42.9226 175.433 42.6785L175.23 44.1352C175.171 44.443 175.171 44.7592 175.23 45.067C175.261 45.221 175.334 45.3632 175.442 45.4774C175.55 45.5917 175.688 45.6732 175.841 45.7126C175.88 45.9384 176.119 46.046 176.314 46.1693C176.458 46.2674 176.581 46.3929 176.675 46.5387C176.77 46.6844 176.835 46.8474 176.866 47.0183C176.897 47.1893 176.894 47.3646 176.857 47.5343C176.819 47.7039 176.748 47.8645 176.648 48.0066C176.483 48.2297 176.238 48.4056 176.159 48.6707C176.041 49.0539 176.322 49.4581 176.664 49.6681C177.006 49.878 177.409 49.9752 177.756 50.1773C178.477 50.592 178.864 51.4083 179.111 52.2009C179.295 52.7993 179.448 53.4476 179.901 53.8833C180.074 54.0487 180.282 54.1747 180.448 54.3479C180.735 54.6861 180.901 55.11 180.919 55.5527C180.991 56.1013 180.87 56.6578 180.577 57.1275C180.051 57.8781 179.069 58.1012 178.209 58.4398C176.812 59.012 175.662 60.0357 174.43 60.9071C173.929 61.31 173.338 61.5872 172.707 61.7155C171.854 61.8283 171.015 61.453 170.157 61.4189C169.644 61.4236 169.133 61.4906 168.636 61.6184L167.057 61.9596C167.142 60.7391 166.468 59.516 166.092 58.3532C165.381 56.1642 165.25 53.823 165.418 51.529C165.587 49.235 166.055 46.9725 166.518 44.7205C166.842 43.1457 166.81 41.5 167.307 39.9698C167.773 38.4973 168.439 37.0826 168.684 35.5498C169.084 33.0694 167.421 30.967 167.984 28.5208Z" fill="#3F3D56"/>
<path d="M179.953 33.3739C180.098 33.6406 180.2 33.9285 180.256 34.2269C180.377 34.6893 180.605 35.117 180.921 35.4763C181.186 35.7092 181.421 35.9737 181.621 36.2637C181.863 36.7204 181.771 37.2768 181.884 37.7755C182.016 38.3188 182.397 38.7913 182.453 39.3504C182.454 39.5105 182.469 39.6703 182.497 39.8281C182.668 40.4632 183.605 40.6155 183.813 41.2506C183.952 41.6627 183.713 42.1115 183.758 42.5446C183.79 42.6786 183.798 42.8173 183.781 42.9541C183.722 43.1088 183.618 43.2422 183.482 43.3373C182.611 44.1671 182.008 45.2373 181.75 46.4108C181.497 47.5779 181.363 48.7679 181.353 49.962L180.324 48.6051C180.215 48.4404 180.076 48.2979 179.914 48.1851C179.782 48.1064 179.629 48.067 179.495 47.9883C179.106 47.7678 178.953 47.3006 178.803 46.8806C178.387 45.7181 177.763 44.6404 176.961 43.6995C176.543 43.2087 176.056 42.7152 175.964 42.0774C175.936 41.7845 175.952 41.4891 176.011 41.2008C176.275 39.4816 176.556 37.7204 177.395 36.1955C177.788 35.4815 178.295 34.8359 178.672 34.1115C178.924 33.6311 179.279 32.3818 179.953 33.3739Z" fill="#3F3D56"/>
<path d="M153.996 35.0248C154.001 35.2458 153.944 35.4638 153.833 35.6548C153.732 35.771 153.601 35.8571 153.454 35.9035C153.308 35.9498 153.151 35.9546 153.001 35.9172C152.702 35.8422 152.42 35.7103 152.17 35.5288C151.437 35.0668 150.703 34.604 149.97 34.1403C149.561 33.8942 149.166 33.6243 148.789 33.3319C148.212 32.8459 147.689 32.2995 147.228 31.702C145.95 30.1271 144.818 28.4185 143.395 26.9775C143.008 26.5838 142.605 26.2058 142.232 25.7937C141.721 25.1981 141.252 24.5685 140.827 23.9092C140.416 23.3029 139.99 22.631 140.061 21.9066C140.103 21.4971 140.3 21.1192 140.358 20.7123C140.416 20.3055 140.261 19.8094 139.866 19.6992C139.82 19.6875 139.772 19.6796 139.724 19.6756C139.646 19.6673 139.569 19.6506 139.495 19.6257C139.129 19.4735 139.185 18.9092 139.448 18.6126C139.711 18.316 140.1 18.1506 140.34 17.8251C140.451 17.632 140.576 17.447 140.714 17.2713C140.89 17.1206 141.1 17.0152 141.327 16.9642C142.844 16.5181 144.45 16.4576 145.997 16.7884C146.26 16.8461 146.56 16.9511 146.639 17.2057C146.671 17.3297 146.671 17.4596 146.639 17.5837C146.523 18.1012 146.456 18.6285 146.439 19.1585C146.439 19.269 146.445 19.3794 146.458 19.4892C146.581 20.6021 147.305 21.5443 148.01 22.4131C148.847 23.4473 149.697 24.4735 150.549 25.4972C151.01 26.0903 151.525 26.6395 152.088 27.1376C152.615 27.5733 153.296 27.925 153.707 28.4841C154.041 28.9355 153.933 29.5523 153.97 30.0956C154.092 31.7361 154.101 33.3831 153.996 35.0248V35.0248Z" fill="#3F3D56"/>
<path d="M187.413 45.9751C187.673 45.7231 187.907 45.4461 188.113 45.1483C188.334 44.7793 188.51 44.3855 188.639 43.9751L190.165 39.6574C190.407 38.975 190.649 38.29 190.954 37.6259C191.27 36.9094 191.644 36.2191 191.988 35.5261C192.875 33.7026 193.561 31.7885 194.033 29.8174C194.116 29.5466 194.144 29.2619 194.115 28.9801C194.041 28.5261 193.696 28.1717 193.367 27.8489C193.036 27.4925 192.66 27.1818 192.246 26.925C192.039 26.7963 191.808 26.71 191.567 26.6713C191.325 26.6325 191.079 26.642 190.841 26.6993C190.168 26.8961 189.744 27.5838 189.589 28.2741C189.434 28.9644 189.491 29.6704 189.426 30.3739C189.331 31.3817 188.984 32.3555 188.899 33.366C188.855 33.9513 188.899 34.5419 188.828 35.1246C188.699 35.8897 188.431 36.6252 188.039 37.2952C187.184 38.8913 186.029 40.3082 184.637 41.4685C184.255 41.7493 183.912 42.0784 183.616 42.4475C183.368 42.8166 183.201 43.2332 183.124 43.6706C182.949 44.3366 183.025 45.0434 183.337 45.6575C183.766 46.3872 184.589 46.7074 185.376 46.8701C186.439 47.0906 186.684 46.7284 187.413 45.9751Z" fill="#BE6F72"/>
<path d="M167.01 12.8198C167.237 12.3952 167.584 12.0466 168.008 11.8174C168.432 11.5882 168.914 11.4886 169.394 11.5311C169.878 11.6166 170.328 11.8355 170.694 12.163C171.059 12.4904 171.325 12.9135 171.462 13.3842C171.586 13.7752 171.636 14.2083 171.852 14.5443C172.178 15.0509 172.783 15.1978 173.236 15.5653C173.506 15.8157 173.723 16.1174 173.875 16.4527C174.027 16.7881 174.11 17.1503 174.12 17.5181C174.145 18.2694 174.026 19.0186 173.77 19.7255C173.661 20.0271 173.573 20.3357 173.507 20.6493C173.454 20.9538 173.449 21.2635 173.402 21.568C173.343 21.9628 173.206 22.3419 172.999 22.6832C172.791 23.0244 172.518 23.3208 172.194 23.5549C172.102 23.6299 171.987 23.6716 171.868 23.673C171.662 23.6494 171.536 23.4105 171.46 23.1953C171.041 21.9906 171.141 20.5181 170.37 19.5575C170.02 19.1699 169.596 18.8551 169.123 18.6309C168.93 18.5069 168.713 18.4255 168.486 18.3921C168.153 18.41 167.832 18.527 167.565 18.7281C167.01 19.0996 166.394 19.3715 165.745 19.5312C165.421 19.6078 165.084 19.6112 164.758 19.5413C164.433 19.4714 164.127 19.3298 163.863 19.127C163.5 18.8278 163.234 18.379 162.832 18.1454C162.429 17.9118 162.008 17.9249 161.611 17.7648C161.358 17.6574 161.132 17.4937 160.952 17.2863C160.772 17.0788 160.642 16.8331 160.571 16.5678C160.501 16.3025 160.492 16.0246 160.545 15.7554C160.599 15.4861 160.713 15.2326 160.879 15.0141C161.143 14.6991 161.532 14.5207 161.766 14.1716C162.069 13.7201 162.042 13.1007 162.187 12.56C162.273 12.2179 162.439 11.9011 162.672 11.6359C162.905 11.3707 163.198 11.1647 163.526 11.035C163.845 10.9271 164.187 10.9064 164.517 10.9752C164.846 11.044 165.151 11.1997 165.4 11.4261C165.663 11.6624 165.874 11.9668 166.131 12.2135C166.386 12.4566 166.698 12.6321 167.038 12.7238C167.378 12.8155 167.736 12.8206 168.079 12.7385" fill="#3F3D56"/>
<path opacity="0.1" d="M171.336 51.4529C171.182 51.589 171.074 51.7679 171.024 51.9664C170.974 52.1649 170.986 52.3738 171.057 52.5658C171.115 52.6891 173.83 52.1668 174.117 52.1274C174.833 52.0251 176.088 52.0749 176.569 51.4214C177.427 50.2639 174.769 50.5211 174.283 50.5631C173.356 50.6418 172.041 50.7678 171.336 51.4529Z" fill="black"/>
<path d="M146.634 17.5942C146.518 18.1117 146.451 18.6389 146.434 19.169C145.644 19.3291 144.823 19.0666 144.066 18.8041L141.89 18.064C141.757 17.9796 141.598 17.9487 141.443 17.9774C141.289 18.0062 141.151 18.0925 141.058 18.2188C140.708 18.5811 140.227 19.2687 139.742 19.6755C139.665 19.6673 139.588 19.6506 139.514 19.6257C139.148 19.4734 139.203 18.9091 139.466 18.6126C139.729 18.316 140.119 18.1506 140.358 17.8251C140.47 17.632 140.594 17.447 140.732 17.2713C140.908 17.1206 141.119 17.0152 141.345 16.9642C142.863 16.5181 144.468 16.4576 146.015 16.7884C146.279 16.8461 146.579 16.9511 146.657 17.2057C146.683 17.3351 146.675 17.4689 146.634 17.5942Z" fill="#3F3D56"/>
<path opacity="0.1" d="M146.634 17.5942C146.518 18.1117 146.451 18.6389 146.434 19.169C145.644 19.3291 144.823 19.0666 144.066 18.8041L141.89 18.064C141.757 17.9796 141.598 17.9487 141.443 17.9774C141.289 18.0062 141.151 18.0925 141.058 18.2188C140.708 18.5811 140.227 19.2687 139.742 19.6755C139.665 19.6673 139.588 19.6506 139.514 19.6257C139.148 19.4734 139.203 18.9091 139.466 18.6126C139.729 18.316 140.119 18.1506 140.358 17.8251C140.47 17.632 140.594 17.447 140.732 17.2713C140.908 17.1206 141.119 17.0152 141.345 16.9642C142.863 16.5181 144.468 16.4576 146.015 16.7884C146.279 16.8461 146.579 16.9511 146.657 17.2057C146.683 17.3351 146.675 17.4689 146.634 17.5942Z" fill="black"/>
<path opacity="0.1" d="M166.539 67.4243C166.918 67.5502 167.328 67.734 167.457 68.1119L164.41 67.3403L162.832 66.9387C162.553 66.8678 161.553 66.7865 161.369 66.5686C161.106 66.2484 162.04 66.4689 162.208 66.4925C162.719 66.5686 163.229 66.6473 163.737 66.7392C164.695 66.9098 165.616 67.1907 166.539 67.4243Z" fill="black"/>
<path opacity="0.1" d="M167.721 70.1145C167.457 69.9387 166.702 69.9597 166.379 69.8835C165.905 69.7707 165.439 69.6211 164.974 69.4767C164.029 69.1696 163.092 68.8205 162.121 68.5948C161.942 68.5555 161.332 68.5449 161.361 68.3192C161.39 68.0935 161.971 68.0148 162.116 68.0043C162.976 67.9413 164.05 68.3429 164.85 68.6289C165.869 68.9932 166.835 69.4929 167.721 70.1145V70.1145Z" fill="black"/>
<path opacity="0.1" d="M165.789 65.0252C164.823 64.7628 163.947 64.1643 162.953 64.0488C162.693 64.0587 162.439 63.981 162.229 63.8284C162.112 63.7137 162.031 63.5679 161.995 63.4084C162.661 63.3743 163.434 63.6551 164.039 63.9202C164.372 64.0627 164.693 64.2331 164.997 64.4294C165.218 64.5633 165.55 64.9491 165.789 65.0252Z" fill="black"/>
<path d="M184.197 41.5236C184.034 42.6148 184.27 43.7282 184.863 44.6599C185.455 45.5916 186.364 46.2793 187.423 46.5972C187.294 47.2192 186.65 47.5631 186.194 48.0066C185.552 48.6287 185.221 49.5605 184.463 50.0329C183.618 50.5578 182.532 50.3531 181.569 50.1326C181.481 50.1229 181.4 50.0807 181.342 50.0145C181.323 49.9831 181.308 49.9485 181.3 49.9122C180.982 48.7494 180.774 47.5079 181.1 46.3426C181.363 45.3504 181.995 44.5053 182.5 43.6286C183.005 42.752 183.053 41.8123 184.197 41.5236Z" fill="#3F3D56"/>
<path d="M160.671 26.4736C159.653 26.5475 158.664 26.8479 157.777 27.3528C157.188 27.6888 156.582 28.1402 155.909 28.0589C155.512 28.0143 155.119 27.7964 154.733 27.9014C154.515 27.9891 154.312 28.1095 154.13 28.2584C154.038 28.3315 153.929 28.3795 153.812 28.3979C153.696 28.4163 153.577 28.4044 153.467 28.3633L153.204 31.9959C153.104 33.3765 153.007 34.786 153.338 36.1325C153.509 36.8201 153.885 37.4448 153.928 38.143C153.97 38.8412 153.906 39.5577 153.956 40.2638C154.004 40.9173 154.149 41.5604 154.185 42.2139C154.259 43.4475 153.954 44.6706 153.659 45.8701C153.214 47.6392 152.946 49.4476 152.08 51.0487C151.838 51.4922 151.554 51.9437 151.554 52.4476C151.554 52.5106 151.554 52.571 151.57 52.6314C151.307 52.7757 151.062 52.9122 150.838 53.054C150.338 53.3768 149.804 53.7364 149.599 54.2954C149.433 54.7495 149.51 55.2692 149.31 55.7075C149.11 56.1459 148.652 56.4582 148.552 56.9306C148.481 57.2745 148.618 57.6367 148.552 57.9805C148.492 58.1584 148.444 58.3399 148.407 58.5238C148.381 58.9175 148.715 59.2351 149.047 59.4504C149.53 59.7682 150.064 60.0025 150.625 60.1433L152.196 53.9227C153.628 51.2813 154.82 48.5169 155.756 45.6628C156.024 44.7299 156.368 43.8204 156.785 42.9436C157.083 42.4475 157.347 41.9319 157.574 41.4003C157.814 40.7388 157.838 40.0223 157.953 39.3241C158.091 38.5092 158.298 37.7076 158.572 36.9278C158.856 36.0852 159.185 35.2453 159.243 34.3608C159.329 33.0957 158.869 31.7597 159.358 30.5891C159.566 30.1509 159.837 29.7451 160.161 29.3844C160.84 28.5549 161.458 27.6862 162.137 26.8568C161.784 26.4814 161.198 26.4421 160.671 26.4736Z" fill="#3F3D56"/>
<g opacity="0.1">
<path opacity="0.1" d="M168.086 11.9563L167.757 11.9799L167.72 12.0061C167.844 12.0011 167.966 11.9845 168.086 11.9563V11.9563Z" fill="black"/>
<path opacity="0.1" d="M174.107 17.4052C174.052 17.927 173.939 18.4411 173.77 18.938C173.661 19.2396 173.573 19.5483 173.507 19.8619C173.454 20.1664 173.449 20.4761 173.402 20.7806C173.343 21.1753 173.206 21.5545 172.999 21.8957C172.791 22.237 172.518 22.5333 172.194 22.7675C172.102 22.8425 171.987 22.8841 171.868 22.8856C171.662 22.862 171.536 22.6231 171.46 22.4079C171.041 21.2031 171.141 19.7307 170.37 18.77C170.02 18.3825 169.596 18.0677 169.123 17.8435C168.93 17.7195 168.713 17.6381 168.486 17.6047C168.153 17.6226 167.832 17.7396 167.565 17.9406C167.01 18.3122 166.394 18.584 165.745 18.7438C165.421 18.8204 165.084 18.8238 164.758 18.7539C164.433 18.6839 164.127 18.5424 163.863 18.3396C163.5 18.0404 163.234 17.5916 162.832 17.358C162.429 17.1244 162.008 17.1375 161.611 16.9774C161.363 16.8716 161.142 16.7115 160.964 16.5088C160.786 16.3062 160.657 16.0662 160.585 15.8068C160.575 15.774 160.568 15.7407 160.564 15.707C160.498 16 160.505 16.3046 160.585 16.5942C160.657 16.8536 160.786 17.0936 160.964 17.2962C161.142 17.4989 161.363 17.659 161.611 17.7648C162.008 17.9249 162.456 17.9275 162.832 18.1454C163.208 18.3632 163.5 18.8278 163.863 19.127C164.127 19.3298 164.433 19.4713 164.758 19.5413C165.084 19.6112 165.421 19.6078 165.745 19.5312C166.394 19.3715 167.01 19.0996 167.565 18.728C167.832 18.527 168.153 18.41 168.486 18.3921C168.713 18.4255 168.93 18.5069 169.123 18.6309C169.59 18.8595 170.007 19.1769 170.352 19.5653C171.123 20.526 171.023 21.9984 171.441 23.2032C171.518 23.421 171.644 23.6572 171.849 23.6809C171.975 23.6815 172.098 23.6368 172.194 23.5549C172.519 23.3201 172.794 23.0226 173.002 22.6799C173.21 22.3373 173.347 21.9565 173.404 21.5601C173.452 21.2556 173.457 20.9459 173.509 20.6415C173.576 20.3279 173.664 20.0192 173.773 19.7176C174.029 19.0107 174.148 18.2615 174.122 17.5102C174.117 17.4787 174.112 17.4419 174.107 17.4052Z" fill="black"/>
</g>
<path d="M157.459 38.4658L157.28 40.8622C157.253 41.1877 156.63 48.9358 152.03 57.991C148.084 65.7575 140.403 75.8731 125.902 81.5583C124.771 82.0045 123.596 82.4209 122.379 82.8076L121.021 78.5556C124.43 77.4856 127.713 76.053 130.815 74.2826C138.206 70.0253 143.952 63.9491 147.96 56.1301C150.086 51.9671 151.601 47.5209 152.459 42.9278H135.961V38.4658H157.459Z" fill="#9B51E0"/>
<path opacity="0.1" d="M124.126 81.5609C138.624 75.8758 146.307 65.7628 150.252 57.9963C154.851 48.941 155.477 41.1981 155.501 40.8674L155.68 38.4711H157.522L157.343 40.8674C157.319 41.1929 156.693 48.941 152.093 57.9963C148.147 65.7628 140.466 75.8758 125.968 81.5609C124.836 82.0071 123.661 82.4244 122.442 82.8129L122.263 82.2538C122.898 82.0281 123.519 81.7971 124.126 81.5609Z" fill="white"/>
<path d="M95.098 78.5556L93.7403 82.8076C92.5211 82.4192 91.3458 82.0018 90.2144 81.5556C75.7162 75.8705 68.0329 65.7575 64.0887 57.991C59.4892 48.9358 58.863 41.1929 58.8393 40.8622L58.6604 38.4658H80.1472V42.9278H63.6466C64.5092 47.5215 66.0289 51.9677 68.1592 56.1301C72.1666 63.9491 77.9107 70.0253 85.3019 74.28C88.4037 76.0522 91.6881 77.4857 95.098 78.5556V78.5556Z" fill="#9B51E0"/>
<path opacity="0.1" d="M91.9878 81.5609C77.4896 75.8758 69.8063 65.7628 65.8621 57.9963C61.2626 48.941 60.6364 41.1981 60.6127 40.8674L60.4338 38.4711H58.5919L58.7708 40.8674C58.7945 41.1929 59.4208 48.941 64.0202 57.9963C67.9671 65.7628 75.6477 75.8758 90.1459 81.5609C91.2774 82.0071 92.4527 82.4244 93.6718 82.8129L93.8507 82.2538C93.2175 82.0281 92.5965 81.7971 91.9878 81.5609Z" fill="white"/>
<path d="M132.88 119.658V143.719H83.2363V119.658L84.8151 117.559C100.903 111.863 104.163 97.0098 104.813 91.1331C104.909 90.321 104.965 89.5046 104.978 88.6869H111.117C111.131 89.5046 111.186 90.321 111.283 91.1331C111.943 97.0098 115.203 111.868 131.28 117.559L132.88 119.658Z" fill="#9B51E0"/>
<path opacity="0.1" d="M132.88 119.658H83.2363V122.677H132.88V119.658Z" fill="black"/>
<path opacity="0.1" d="M87.4463 117.559C103.534 111.863 106.794 97.0098 107.444 91.1331C107.541 90.321 107.596 89.5046 107.61 88.6869H104.978C104.965 89.5046 104.909 90.321 104.813 91.1331C104.152 97.0098 100.892 111.868 84.8151 117.559L83.2363 119.658V143.719H85.8676V119.658L87.4463 117.559Z" fill="white"/>
<path opacity="0.1" d="M75.6952 38.4658H80.1472V42.9279H76.0899C75.9302 41.458 75.7987 39.9707 75.6952 38.4658Z" fill="black"/>
<path opacity="0.1" d="M95.098 78.5556L93.7402 82.8076C92.5211 82.4191 91.3458 82.0018 90.2143 81.5556C88.3531 79.2884 86.7084 76.8525 85.3018 74.2799C88.4036 76.0522 91.688 77.4857 95.098 78.5556Z" fill="black"/>
<path opacity="0.1" d="M121.018 78.5555C124.427 77.4855 127.71 76.0529 130.812 74.2825C129.404 76.8555 127.76 79.2921 125.899 81.5608C124.768 82.007 123.594 82.4235 122.376 82.8102L121.018 78.5555Z" fill="black"/>
<path opacity="0.1" d="M140.419 38.4658C140.315 39.9707 140.183 41.458 140.024 42.9279H135.969V38.4658H140.419Z" fill="black"/>
<path opacity="0.1" d="M111.293 91.1331C109.157 91.5461 106.96 91.5461 104.823 91.1331C104.92 90.321 104.975 89.5046 104.989 88.6869H111.128C111.141 89.5046 111.197 90.321 111.293 91.1331V91.1331Z" fill="black"/>
<path d="M76.2213 31.0747C76.3345 64.1617 90.5432 90.9179 108.059 90.9179C125.576 90.9179 139.782 64.1617 139.898 31.0747H76.2213Z" fill="#9B51E0"/>
<path opacity="0.1" d="M81.8785 31.0747H76.2213C76.3345 64.1617 90.5432 90.9179 108.059 90.9179C109.007 90.9162 109.953 90.8363 110.888 90.679C94.6953 87.9809 81.9864 62.3611 81.8785 31.0747Z" fill="white"/>
<path d="M124.942 128.868H91.1748V137.53H124.942V128.868Z" fill="#3F3D56"/>
<path opacity="0.1" d="M92.7536 130.05H124.942V128.868H91.1748V137.53H92.7536V130.05Z" fill="white"/>
<path d="M58.2132 63.0199C57.6054 62.8178 54.0268 59.9936 53.7558 58.7154C53.4848 57.4372 55.6477 45.5289 55.6477 45.5289C55.6477 45.5289 55.4477 45.5289 55.1215 45.4895V45.2979L55.5661 29.6547C55.5661 29.6547 57.3896 19.1559 53.9453 19.7674C50.501 20.379 52.6612 29.6547 52.6612 29.6547C52.6612 29.6547 52.2692 34.3634 51.9929 35.7755C51.7298 37.1377 50.5247 42.6863 51.3456 44.4108C51.3757 44.472 51.409 44.5316 51.4456 44.5892V44.5892C51.4456 44.5892 51.5824 50.5079 50.0958 51.3164C48.6775 52.0854 48.0881 55.9568 48.0381 56.3033L47.9618 56.2718C47.5384 56.0075 47.1666 55.6687 46.8646 55.2718C46.833 55.2324 46.8093 55.1904 46.7804 55.1484C47.7485 54.062 48.2702 52.6514 48.2414 51.1981C48.2127 49.7448 47.6355 48.3559 46.6251 47.3084C46.1554 46.8217 45.6042 46.4202 44.9964 46.1221C44.9787 45.6205 44.8597 45.1277 44.6464 44.6732C43.9623 43.2139 40.1733 41.3057 37.4815 41.2611C36.2396 41.2244 35.2213 41.5761 34.8503 42.5446C34.6608 43.0354 34.7187 43.5945 34.6398 44.1037C34.4819 45.1536 33.8057 45.9751 32.9374 46.6286C32.5867 46.2382 32.2077 45.8741 31.8033 45.5394C30.9244 44.8675 29.172 42.6522 29.172 42.6522C29.172 42.6522 23.7017 37.0012 23.2964 35.4526C22.8912 33.9041 17.4261 24.6047 16.2105 26.2242C14.9948 27.8436 20.3968 34.9015 20.3968 34.9015C20.3968 34.9015 21.423 37.4658 22.2124 38.3319C23.0017 39.1981 29.0536 47.9646 29.0536 47.9646L29.3431 48.563C28.0643 49.235 26.896 50.0906 26.4829 51.424C25.8777 53.3872 27.2012 55.361 28.1169 57.1983C29.9009 60.7837 30.1561 65.3559 27.8538 68.6315C25.7909 71.524 22.2124 72.8993 18.8628 74.1014C20.4805 75.3685 22.4901 76.034 24.5463 75.9833C23.7727 78.2196 21.0309 78.9597 18.6944 79.3744C19.9205 80.5503 21.6756 80.9781 23.3596 81.238C24.1844 81.378 25.0201 81.4439 25.8567 81.4348H26.0619L26.2671 81.4191C26.5523 81.4002 26.8361 81.3643 27.117 81.3115C28.3327 81.0647 29.5141 80.4033 30.1351 79.3325C30.6613 78.4164 30.8455 77.1671 31.8007 76.7077C32.0494 76.5957 32.3174 76.5325 32.59 76.5214H32.5611C32.74 76.5214 32.9242 76.5214 33.1031 76.5214L37.0842 76.5608C37.25 76.5608 37.421 76.5608 37.592 76.5608C38.7156 76.5345 39.9154 76.3403 40.4864 75.4138C40.7213 74.9638 40.8449 74.4643 40.8469 73.9571C40.9311 72.6998 40.8469 71.4058 40.8811 70.1381C41.2205 72.4452 41.5758 76.0411 40.7311 77.3692C40.0449 78.3755 39.2132 79.275 38.263 80.0385C38.024 80.2387 37.8054 80.462 37.6105 80.7052C37.4815 80.797 37.4052 80.8469 37.4052 80.8469L37.3237 81.091C37.0238 81.5447 36.8064 82.0476 36.6816 82.5766C36.6357 82.7124 36.6187 82.8564 36.6316 82.9992C36.7237 83.1855 35.9738 83.9545 36.1922 84.2774C34.3188 86.469 33.9635 89.7893 33.9635 89.7893L30.5429 94.9704C28.7852 99.5768 26.154 100.049 26.154 100.049C26.154 100.049 19.9732 95.9127 19.8048 95.7106C19.6364 95.5085 17.2735 94.498 17.2735 94.498C16.9949 94.0106 16.5696 93.6231 16.0579 93.3904C15.2474 93.0544 15.179 91.8155 15.179 91.8155C15.079 88.889 13.3556 88.6659 13.3556 88.6659C11.9663 88.5478 10.9059 88.7945 10.0902 89.246L9.84285 89.2643C8.64826 89.3614 7.21159 89.4691 5.63284 89.5741C1.24128 89.8628 0.196673 92.7001 0.196673 92.7001C0.196673 92.7001 -0.342734 93.3064 0.365073 93.9626C1.07288 94.6187 5.6039 93.9626 5.79598 93.9468C5.45066 93.9841 5.10146 93.9601 4.76453 93.8759C5.4776 93.8497 6.45905 93.8234 7.29579 93.8234H7.4984C7.44573 94.2659 7.42024 94.7112 7.42209 95.1568C7.42209 95.9967 9.75075 96.5348 9.75075 96.5348L16.842 102.834C16.842 102.834 21.2993 104.821 24.1358 107.679C26.9723 110.538 29.4799 108.07 29.4799 108.07C32.4821 107.33 41.1206 96.9127 41.1285 96.9022C41.1285 97.2067 41.31 107.338 41.6547 109.372C41.6684 109.475 41.694 109.577 41.731 109.674C42.1362 110.548 41.5942 112.937 41.36 113.944C41.2106 114.788 41.1533 115.645 41.189 116.501C41.189 116.501 37.9499 128.837 38.2183 129.921C38.4867 131.005 36.4632 136.042 36.4632 136.042V140.241L36.8158 140.223C36.77 140.291 36.7278 140.361 36.6895 140.433L36.6658 140.478C36.6658 140.478 38.8261 140.947 40.2786 140.814C41.731 140.68 44.2254 141.929 44.2254 141.929C44.2254 141.929 45.0701 142.328 47.6697 142.496C50.2694 142.664 50.2694 141.352 50.2694 141.352C49.9721 139.564 45.8647 138.966 45.7384 138.947C45.4069 138.74 45.0964 138.514 44.8411 138.32L44.7885 138.278C44.8057 138.239 44.8207 138.198 44.8333 138.157C45.2727 136.373 42.8414 135.598 42.8414 135.598V135.163C44.4201 134.354 44.7333 128.805 44.7333 128.805C44.7333 128.805 47.1014 121.945 47.4329 120.8C47.7645 119.656 47.4329 117.942 47.4329 117.942L47.6697 116.462C47.6697 116.462 48.1776 115.454 48.1776 115.252C48.2433 114.739 48.4409 114.253 48.7512 113.839C49.1222 113.401 48.346 112.359 48.346 112.359L49.0222 110.611V108.692L50.601 101.732C50.601 101.732 52.256 93.624 51.6824 90.9704C51.1088 88.3168 52.3586 86.9677 52.3586 86.9677C52.246 87.0268 52.13 87.0794 52.0113 87.1252C52.1693 86.7609 52.3055 86.3875 52.4192 86.0071L55.9713 86.4454V86.4979H57.2528C57.2528 86.4979 56.8476 81.511 56.8476 79.5004C56.8476 77.4899 58.2132 70.2746 58.2132 70.2746C58.2132 70.2746 58.821 63.222 58.2132 63.0199ZM42.4441 57.1983C42.4441 57.3952 42.4257 57.5999 42.4125 57.8099L42.3415 57.9175L42.2099 57.8073L42.0494 58.0566L42.002 58.0802C41.6547 57.9017 41.4758 56.8807 41.2258 57.1012L41.1916 57.1301C41.1363 57.0671 41.0811 57.0487 41.0232 57.1012L40.9706 57.1458C40.9706 57.0697 40.9706 56.991 40.9706 56.9122C41.4519 57.0358 41.947 57.0984 42.4441 57.0986C42.4467 57.1327 42.4441 57.1668 42.4441 57.1983ZM54.2584 80.4217H54.3347L54.2084 80.7524C54.2242 80.6422 54.24 80.5346 54.2584 80.4217V80.4217ZM41.289 139.942L40.8048 139.821L41.0679 139.777L41.3126 139.937L41.3416 139.958L41.289 139.942ZM46.2357 139.236C46.0752 139.152 45.9121 139.055 45.7542 138.955C45.8068 138.984 46.0147 139.092 46.2357 139.236V139.236Z" fill="url(#paint1_linear)"/>
<path d="M56.0054 75.4637L52.819 83.7472H53.5926L50.5956 86.1304L56.0054 86.8023V75.4637Z" fill="#F86D70"/>
<path opacity="0.1" d="M56.0054 75.4637L52.819 83.7472L52.0165 83.532L50.5956 86.1304L56.0054 86.8023V75.4637Z" fill="black"/>
<path d="M51.0088 80.7629H56.0055L57.8395 65.7103H51.0088V80.7629Z" fill="#F86D70"/>
<path opacity="0.1" d="M51.0088 80.7629H56.0055L57.8395 65.7103H51.0088V80.7629Z" fill="black"/>
<path d="M41.2494 69.2746L42.3282 69.0935L44.8069 68.6735C44.8069 68.6735 52.2507 66.999 53.7874 66.8625C54.7182 66.7399 55.626 66.4817 56.4818 66.0961C56.8843 65.9228 57.1396 65.7916 57.1396 65.7916L54.4583 60.907L50.2983 57.8309C50.2983 57.8309 47.6671 57.2718 46.554 55.7443C46.3056 55.4156 46.1439 55.0299 46.0837 54.6227C46.0235 54.2155 46.0667 53.7997 46.2093 53.4135C46.8882 51.3138 42.1546 55.4214 42.1546 55.4214C42.1546 55.4214 42.1993 56.4057 42.1546 57.6603C42.1546 57.907 42.1309 58.1642 42.1125 58.4267C42.1125 58.5999 42.0888 58.7732 42.0704 58.9516C41.9546 60.1984 41.7178 61.4818 41.2494 62.2483C40.1048 64.1223 41.2494 69.2746 41.2494 69.2746Z" fill="#FBBEBE"/>
<path opacity="0.1" d="M42.1545 57.7653H42.2598C42.4492 57.7653 42.6019 57.3637 42.786 57.3453C44.2674 57.2036 45.6199 56.8939 46.5592 55.8466C46.3115 55.5181 46.1502 55.1329 46.09 54.7263C46.0298 54.3196 46.0726 53.9044 46.2146 53.5185C46.8934 51.4187 42.1598 55.5238 42.1598 55.5238C42.1598 55.5238 42.2098 56.5106 42.1545 57.7653Z" fill="black"/>
<path d="M36.3921 51.8125C36.3917 52.5681 36.5407 53.3164 36.8304 54.0146C37.1202 54.7128 37.545 55.3471 38.0806 55.8815C38.6163 56.4158 39.2523 56.8395 39.9522 57.1286C40.6521 57.4176 41.4023 57.5661 42.1598 57.5658C42.3493 57.5658 42.5361 57.5658 42.7229 57.5396C43.8343 57.4308 44.8901 57.0026 45.7622 56.3069C46.6343 55.6112 47.2851 54.6779 47.6358 53.6203C47.9865 52.5627 48.0218 51.4264 47.7375 50.3492C47.4533 49.272 46.8617 48.3002 46.0345 47.5519C45.2073 46.8036 44.1801 46.3109 43.0777 46.1337C41.9752 45.9564 40.8449 46.1022 39.8239 46.5533C38.8029 47.0044 37.9351 47.7415 37.3259 48.6751C36.7167 49.6087 36.3923 50.6985 36.3921 51.8125Z" fill="#FBBEBE"/>
<path d="M34.6214 43.0801C34.432 43.5683 34.4899 44.1142 34.4135 44.6313C34.132 46.4974 32.2296 47.6155 30.5088 48.3977C28.7879 49.1799 26.8461 50.1064 26.2988 51.9096C25.6988 53.8597 27.0092 55.8151 27.9196 57.6446C29.6931 61.2089 29.9457 65.7549 27.6565 69.0148C25.6225 71.902 22.0782 73.272 18.7418 74.4742C20.3476 75.7343 22.3433 76.3969 24.3859 76.3482C23.6202 78.5713 20.8968 79.3089 18.576 79.7183C19.7943 80.8889 21.5388 81.3141 23.2097 81.5714C24.428 81.7603 25.6778 81.8837 26.8934 81.6396C28.1091 81.3955 29.2616 80.7367 29.8878 79.6711C30.4141 78.7603 30.593 77.5188 31.5429 77.0595C31.9716 76.8911 32.4336 76.8238 32.8927 76.8626L36.8396 76.9046C38.0684 76.9046 39.5234 76.8101 40.1576 75.7629C40.3915 75.3155 40.5142 74.8186 40.5154 74.3141C40.6864 71.7313 40.1891 69.0017 41.2548 66.6447C41.5758 65.9334 39.5155 64.8074 39.7313 64.0541C40.4733 61.4635 40.6601 59.4241 40.6522 56.7285C40.6522 54.6419 42.0126 52.844 43.1361 51.0828C44.2597 49.3216 45.199 47.0985 44.3123 45.2087C43.3124 43.1011 35.8029 40.038 34.6214 43.0801Z" fill="#3F3D56"/>
<path d="M39.8759 139.186L40.881 139.85L41.0362 139.953L41.0652 139.971L42.2571 140.758L45.041 141.226L47.4881 141.058C47.4881 141.058 48.1932 139.588 47.0855 139.622C46.7307 139.604 46.3849 139.504 46.0751 139.331L45.9225 139.254C45.762 139.17 45.6015 139.076 45.4436 138.976C45.1147 138.769 44.8042 138.543 44.5542 138.352C44.1858 138.068 43.9411 137.853 43.9411 137.853L39.8759 139.186Z" fill="#FBBEBE"/>
<path opacity="0.1" d="M40.8942 139.85L41.0494 139.953L41.0784 139.971L42.2703 140.758L45.0542 141.226L47.5012 141.058C47.5012 141.058 48.2064 139.588 47.0987 139.622C46.7438 139.604 46.398 139.504 46.0883 139.331C46.283 139.483 46.4461 139.648 46.4619 139.787C46.5066 140.163 44.6516 140.837 44.6516 140.837L42.0361 140.147C42.0361 140.147 41.5914 140.021 40.9836 139.863L40.9257 139.848L40.8942 139.85Z" fill="black"/>
<path d="M36.4211 140.491C36.4211 140.491 38.5656 140.958 40.0075 140.824C41.4495 140.69 43.9334 141.929 43.9334 141.929C43.9334 141.929 44.7727 142.323 47.354 142.491C49.9353 142.659 49.9353 141.352 49.9353 141.352C49.6406 139.575 45.5621 138.989 45.4358 138.963C45.4858 138.989 45.6989 139.097 45.9147 139.241C46.2041 139.43 46.5173 139.677 46.5409 139.877C46.5857 140.249 44.7306 140.926 44.7306 140.926L42.1152 140.239C42.1152 140.239 41.6705 140.11 41.0627 139.953H41.0048C40.1035 139.708 39.1878 139.519 38.263 139.388C37.1368 139.268 36.5606 140.223 36.4422 140.438C36.4336 140.455 36.4266 140.473 36.4211 140.491V140.491Z" fill="#3F3D56"/>
<path d="M2.62 93.2906L3.75933 94.162C3.75933 94.162 4.09086 94.1463 4.58554 94.1306H4.74341C5.45122 94.1043 6.42741 94.0781 7.25626 94.0781C7.79205 94.054 8.32891 94.0839 8.85869 94.1673C9.42704 94.3668 10.4374 90.9231 10.4374 90.9231L9.29547 90.6607L8.91657 90.5714L8.65345 90.5084L7.72462 90.2906L4.90918 90.6108L2.93048 91.8812L2.62 93.2906Z" fill="#FBBEBE"/>
<path opacity="0.1" d="M2.62 93.2906L3.75933 94.1621C3.75933 94.1621 4.09086 94.1463 4.58554 94.1306C4.35854 94.0432 4.17138 93.8761 4.05929 93.6607C3.32254 91.6213 6.97735 90.7499 6.97735 90.7499L8.67976 90.6764L9.0113 90.6607H9.27442L8.89552 90.5714L8.6324 90.5084L7.70357 90.2906L4.88813 90.6108L2.90943 91.8812L2.62 93.2906Z" fill="black"/>
<path d="M0.372809 94.2119C1.0622 94.8471 5.57743 94.2119 5.76689 94.1962C5.42421 94.2347 5.07738 94.2107 4.74333 94.1253C4.57794 94.0958 4.42125 94.0298 4.28469 93.9321C4.14812 93.8345 4.03513 93.7077 3.95395 93.561C3.2172 91.519 6.87201 90.6502 6.87201 90.6502L8.57444 90.5767L8.90334 90.561L13.0423 90.3825L13.2423 89.246C13.2423 89.246 11.8977 89.372 9.78744 89.54C8.60075 89.6371 7.15619 89.7447 5.59586 89.8471C1.23586 90.1358 0.199145 92.9573 0.199145 92.9573C0.199145 92.9573 -0.329736 93.561 0.372809 94.2119Z" fill="#3F3D56"/>
<path d="M51.0114 44.9462C51.0394 45.0085 51.0729 45.0682 51.1114 45.1247L52.1165 46.5945L54.732 46.857L54.7609 45.8229L55.2004 30.2636C55.2004 30.2636 57.0107 19.8278 53.59 20.4289C50.1694 21.0299 52.3165 30.2636 52.3165 30.2636C52.3165 30.2636 51.9271 34.9461 51.6534 36.3529C51.3877 37.7125 50.1957 43.2402 51.0114 44.9462Z" fill="#FBBEBE"/>
<path d="M45.141 83.5924L45.8856 84.8627L47.5512 87.7053C47.5512 87.7053 50.5719 88.8103 51.3455 87.9677C51.7691 87.5084 52.227 85.9047 52.548 84.5556C52.8111 83.4637 52.9874 82.5425 52.9874 82.5425L45.141 83.5924Z" fill="#FBBEBE"/>
<path opacity="0.1" d="M45.141 83.5923L45.8856 84.8627C45.9323 84.8226 45.9747 84.7777 46.0119 84.7288C46.8539 83.6579 50.5614 84.5005 52.548 84.5687C52.8111 83.4768 52.9874 82.5556 52.9874 82.5556L45.141 83.5923Z" fill="black"/>
<path opacity="0.1" d="M7.25635 94.0728C7.79214 94.0488 8.329 94.0787 8.85878 94.1621C9.42713 94.3616 10.4375 90.9179 10.4375 90.9179L8.91667 90.561L13.0556 90.3825L13.2556 89.246C13.2556 89.246 11.911 89.372 9.80077 89.54C9.36472 89.7904 8.97565 90.1146 8.65091 90.498L8.58776 90.5767C7.70629 91.6555 7.38002 93.0466 7.25635 94.0728Z" fill="black"/>
<path opacity="0.1" d="M39.8759 139.186L41.0362 139.953C42.7676 139.64 44.349 139.149 44.5358 138.378C44.5367 138.366 44.5367 138.353 44.5358 138.341C44.1674 138.058 43.9227 137.842 43.9227 137.842L39.8759 139.186Z" fill="black"/>
<path opacity="0.1" d="M36.4449 140.446C37.9739 140.37 39.4972 140.207 41.0075 139.958C40.1055 139.711 39.1889 139.521 38.2631 139.388C37.1396 139.268 36.5634 140.223 36.4449 140.446Z" fill="black"/>
<path d="M7.38257 95.3983C7.38257 96.2355 9.69544 96.771 9.69544 96.771L16.7393 103.026C16.7393 103.026 21.1651 104.999 23.9805 107.842C26.7959 110.685 29.2798 108.244 29.2798 108.244C32.2637 107.509 40.8573 97.1384 40.8573 97.1384C40.8573 97.1384 41.0573 108.981 41.4599 109.85C41.8625 110.719 41.3257 113.094 41.0915 114.099C40.9438 114.938 40.8873 115.79 40.9231 116.64C40.9231 116.64 37.7051 128.916 37.9735 129.987C38.2419 131.057 36.229 136.076 36.229 136.076V140.257C36.229 140.257 44.1096 139.955 44.5437 138.184C44.9779 136.412 42.5677 135.64 42.5677 135.64V135.205C44.1464 134.401 44.4437 128.884 44.4437 128.884C44.4437 128.884 46.7934 122.06 47.1276 120.923C47.4618 119.787 47.1276 118.078 47.1276 118.078L47.3618 116.608C47.3618 116.608 47.8644 115.603 47.8644 115.404C47.9301 114.894 48.1268 114.411 48.4353 114C48.8037 113.564 48.0328 112.527 48.0328 112.527L48.7037 110.787V108.881L50.2825 101.957C50.2825 101.957 51.927 93.8943 51.356 91.2512C50.7851 88.6082 52.027 87.2722 52.027 87.2722C49.3352 88.679 47.9775 85.5478 47.5328 84.2013C47.4197 83.8548 47.3644 83.6239 47.3644 83.6239C47.3644 83.6239 43.6675 82.2643 40.2258 82.5897C39.5269 82.6462 38.838 82.7918 38.1761 83.0228C34.3529 84.3955 33.7503 90.0806 33.7503 90.0806L30.3639 95.2329C28.6194 99.8157 26.0039 100.283 26.0039 100.283C26.0039 100.283 19.8679 96.1699 19.6889 95.9678C19.51 95.7657 17.1735 94.7631 17.1735 94.7631C16.8972 94.278 16.4745 93.8923 15.9657 93.6607C15.1605 93.3248 15.0948 92.0859 15.0948 92.0859C14.9948 89.1751 13.2845 88.9363 13.2845 88.9363C7.34837 88.4428 7.38257 94.5636 7.38257 95.3983Z" fill="#3F3D56"/>
<path d="M41.5204 79.0438H45.141V67.8389H41.5204V79.0438Z" fill="#F86D70"/>
<path opacity="0.1" d="M41.5204 79.0438H45.141V67.8389H41.5204V79.0438Z" fill="black"/>
<path opacity="0.1" d="M51.0086 44.9226C51.008 44.9305 51.008 44.9384 51.0086 44.9462C51.0366 45.0085 51.0701 45.0683 51.1086 45.1247L52.1138 46.5945L54.7293 46.857L54.7582 45.8229C53.9425 45.7599 52.0848 45.5368 51.0086 44.9226Z" fill="black"/>
<path d="M51.1114 45.1247C51.1114 45.1247 51.2456 51.0093 49.7695 51.8124C48.2933 52.6156 47.7197 56.7994 47.7197 56.7994C47.7197 56.7994 52.1929 59.7338 53.1901 61.0252C54.1873 62.3165 56.4765 65.3927 56.0055 66.1276C55.5345 66.8625 57.1475 70.209 57.1475 70.209C57.1475 70.209 54.1952 76.2301 54.8662 78.5057C55.5372 80.7813 55.6029 86.7998 55.6029 86.7998H56.8791C56.8791 86.7998 56.4765 81.8496 56.4765 79.8417C56.4765 77.8338 57.8158 70.6762 57.8158 70.6762C57.8158 70.6762 58.421 63.6525 57.8158 63.453C57.2106 63.2535 53.6585 60.4425 53.3901 59.1695C53.1217 57.8965 55.2688 46.046 55.2688 46.046C55.2688 46.046 52.5191 45.9279 51.1114 45.1247Z" fill="#F86D70"/>
<path opacity="0.1" d="M41.452 66.7995C41.5744 67.6184 41.8734 68.401 42.3282 69.0935L44.8069 68.6736C44.8069 68.6736 52.2507 66.999 53.7873 66.8625C54.7182 66.7399 55.626 66.4817 56.4817 66.0961C55.8919 64.0114 54.7407 62.1278 53.1532 60.6498L52.2086 59.7758C50.8166 58.4867 49.2034 57.458 47.446 56.739C47.5565 56.8309 55.3661 63.4819 53.6558 64.7864C51.9455 66.0909 47.3408 62.915 47.3408 62.915L42.1046 58.4267L41.9151 58.264L41.6125 58.7338C41.7665 58.797 41.9167 58.8688 42.0625 58.949C43.847 59.9261 45.1714 61.568 45.7462 63.516C46.8224 67.125 41.452 66.7995 41.452 66.7995Z" fill="black"/>
<path d="M39.8417 83.5242C39.8417 83.5242 44.8042 86.2669 46.0093 84.7289C46.2724 84.3903 46.8276 84.2433 47.5196 84.204C47.4065 83.8575 47.3513 83.6265 47.3513 83.6265C47.3513 83.6265 43.6544 82.267 40.2127 82.5924C39.9864 83.1593 39.8417 83.5242 39.8417 83.5242Z" fill="#444053"/>
<path d="M42.1256 58.2692L47.5512 62.9255C47.5512 62.9255 52.1375 66.1119 53.8663 64.7969C55.595 63.4819 47.6539 56.7469 47.6539 56.7469C49.4075 57.4681 51.019 58.4936 52.4138 59.7758L53.3584 60.6498C55.8423 62.9465 56.4028 62.9465 56.487 66.3218C56.508 67.1539 56.2239 68.3481 56.0055 68.5633C55.2003 69.3507 54.6372 75.07 54.7609 75.7393C54.8846 76.4086 53.2611 82.1855 53.7873 83.7919C54.3136 85.3982 47.2092 82.9887 46.0067 84.5294C44.8042 86.0701 39.8417 83.3247 39.8417 83.3247C39.8417 83.3247 42.5913 76.2983 43.2623 75.8311C43.9333 75.3639 44.7384 71.7497 43.2623 70.0778C41.7862 68.4058 41.6546 66.7995 41.6546 66.7995C41.6546 66.7995 47.0224 67.1302 45.9462 63.5213C45.6434 62.4752 45.1182 61.5065 44.4062 60.6813C43.6942 59.856 42.8122 59.1936 41.8204 58.7391L42.1256 58.2692Z" fill="#E8E8F0"/>
<path opacity="0.1" d="M49.3668 70.1118C49.3668 70.1118 47.2854 74.0253 44.5937 75.0411C44.5068 75.0726 44.4226 75.1014 44.3305 75.1277C41.5203 75.9807 49.5773 71.3245 49.3668 70.1118Z" fill="black"/>
<path d="M20.26 35.4894C20.26 35.4894 21.2651 38.0328 22.0703 38.9015C22.8754 39.7703 28.8431 48.4686 28.8431 48.4686L29.3483 49.5185L29.7825 50.4135L33.6057 50.0119L33.8688 48.4738L33.7214 48.2953C33.3373 47.836 32.29 46.6024 31.5875 46.0643C30.7166 45.3977 28.972 43.1903 28.972 43.1903C28.972 43.1903 23.5411 37.5682 23.1386 36.0301C22.736 34.492 17.3024 25.2688 16.0973 26.8646C14.8922 28.4605 20.26 35.4894 20.26 35.4894Z" fill="#FBBEBE"/>
<g opacity="0.1">
<path opacity="0.1" d="M31.3534 76.8626C30.8945 76.823 30.4326 76.8895 30.0036 77.0569C29.0563 77.5162 28.8774 78.7576 28.3511 79.6684C27.7354 80.734 26.5619 81.3928 25.3542 81.6369C25.1141 81.6834 24.8716 81.7167 24.6279 81.7367C25.3971 81.8113 26.1731 81.7778 26.9329 81.6369C28.1407 81.3928 29.3142 80.734 29.9299 79.6684C30.4562 78.7576 30.6351 77.5162 31.5823 77.0569C31.831 76.9452 32.0991 76.8828 32.3717 76.8731L31.3534 76.8626Z" fill="black"/>
<path opacity="0.1" d="M40.6996 56.7285C40.6996 54.6419 42.06 52.844 43.1809 51.0828C44.3018 49.3216 45.2438 47.0985 44.3571 45.2087C43.5993 43.5945 39.0314 41.4291 36.3949 41.8569C38.9762 42.1903 42.1573 43.8858 42.7783 45.2087C43.665 47.0985 42.7231 49.3216 41.6021 51.0828C40.4812 52.844 39.1156 54.6419 39.1209 56.7285C39.1209 59.4215 38.9393 61.453 38.1973 64.0541C37.9842 64.8021 40.0392 65.9334 39.7234 66.642C38.6551 69.0043 39.1551 71.7287 38.984 74.3114C38.9805 74.816 38.8569 75.3126 38.6236 75.7603C38.0973 76.6238 37.0185 76.8469 35.9686 76.8941H36.8869C38.1131 76.8941 39.5682 76.7996 40.2023 75.7524C40.4357 75.3047 40.5592 74.8081 40.5628 74.3036C40.7338 71.7208 40.2339 68.9938 41.3022 66.6342C41.6232 65.9255 39.5629 64.7969 39.7761 64.0462C40.5181 61.4635 40.7049 59.4215 40.6996 56.7285Z" fill="black"/>
</g>
<path opacity="0.1" d="M29.3484 49.5132L29.7825 50.4082L33.6058 50.0067L33.8689 48.4686L33.7215 48.2901C33.3137 48.4896 30.2588 49.9568 29.3484 49.5132Z" fill="black"/>
<path opacity="0.1" d="M43.4649 59.5737C43.4649 59.5737 42.5256 58.1039 41.9888 58.5028C41.452 58.9018 41.2441 57.2981 40.9363 57.5658C40.6284 57.8335 39.7312 58.5789 39.3575 57.5369C39.0655 56.7075 35.8869 51.4607 34.5976 49.3505C34.2661 48.8045 34.0582 48.4686 34.0582 48.4686C34.0582 48.4686 30.4376 50.2744 29.5667 49.6733V50.9437L30.3034 51.0119L34.2503 58.3611C34.2503 58.3611 35.4922 60.3322 35.408 61.0199C35.3238 61.7076 36.9999 64.7181 37.2683 64.9176C37.5367 65.1171 40.4258 68.4636 40.4258 68.4636C40.4258 68.4636 41.902 75.6894 40.6258 77.6973C39.3496 79.7052 37.1394 81.175 37.1394 81.175C37.1394 81.175 36.4737 83.1147 36.571 83.3168C36.6684 83.5189 35.7975 84.3876 36.2 84.6554C36.6026 84.9231 37.1394 86.7945 37.1394 86.7945C37.1394 86.7945 39.0181 83.784 40.0338 83.3168C41.0494 82.8496 42.3493 76.692 42.3493 76.692C42.3493 76.692 42.7203 73.0647 42.7492 70.7234C42.7782 68.3822 42.6598 59.5737 43.4649 59.5737Z" fill="black"/>
<path d="M43.2624 59.5737C43.2624 59.5737 42.3257 58.1039 41.7889 58.5028C41.2521 58.9018 41.0416 57.2981 40.7364 57.5658C40.4312 57.8335 39.5339 58.5789 39.1577 57.5369C38.863 56.7075 35.6844 51.4607 34.3977 49.3505L33.8583 48.4686C33.8583 48.4686 30.2377 50.2744 29.3641 49.6733V50.9437L30.1035 51.0119L34.0504 58.3611C34.0504 58.3611 35.295 60.3322 35.2081 61.0199C35.1213 61.7076 36.7869 64.7181 37.0684 64.9176C37.35 65.1171 40.2259 68.4636 40.2259 68.4636C40.2259 68.4636 41.7021 75.6894 40.4285 77.6973C39.7558 78.7058 38.9374 79.6097 37.9999 80.3797C37.2124 81.0277 36.6582 81.9142 36.4212 82.9047C36.3755 83.0397 36.3593 83.1829 36.3738 83.3246C36.4711 83.5241 35.6002 84.3955 36.0028 84.6632C36.4054 84.931 36.9474 86.8102 36.9474 86.8102C36.9474 86.8102 38.8261 83.7997 39.8418 83.3325C40.8574 82.8653 42.1599 76.7078 42.1599 76.7078C42.1599 76.7078 42.5283 73.0804 42.5599 70.7392C42.5914 68.398 42.473 59.5737 43.2624 59.5737Z" fill="#F86D70"/>
<path opacity="0.1" d="M34.0739 90.015C34.0739 90.015 36.892 90.54 38.0208 91.351C39.1497 92.162 33.7292 90.0806 33.7292 90.0806L34.0739 90.015Z" fill="black"/>
<path opacity="0.1" d="M40.8495 97.1385C40.8495 97.1385 43.7886 99.5821 43.2624 101.789C42.7361 103.997 41.3784 109.551 41.3784 109.551L40.8495 97.1385Z" fill="black"/>
<path opacity="0.1" d="M15.145 92.4402C15.145 92.4402 11.0034 92.8917 11.2718 93.4272C11.5402 93.9626 15.145 92.9337 15.145 92.9337V92.4402Z" fill="black"/>
<path opacity="0.1" d="M46.946 112.761C46.946 112.761 47.2091 113.094 45.6725 112.761C44.1359 112.427 45.2699 111.398 45.2699 111.398L46.946 112.761Z" fill="black"/>
<path opacity="0.1" d="M46.4199 117.378C46.4199 117.378 44.3149 117.711 43.1861 117.378C42.0573 117.044 46.4199 117.378 46.4199 117.378Z" fill="black"/>
<path opacity="0.1" d="M42.0889 135.441C42.0889 135.441 41.7205 135.039 39.876 135.774C38.0315 136.509 37.2947 136.543 36.758 136.299C36.2212 136.055 42.0889 135.441 42.0889 135.441Z" fill="black"/>
<path opacity="0.1" d="M44.1359 91.8707L41.5204 95.5007C41.5204 95.5007 42.9281 92.3221 44.1359 91.8707Z" fill="black"/>
<path opacity="0.1" d="M39.0522 58.5028C39.0522 58.5028 38.939 59.7076 37.2524 60.1774C35.5658 60.6472 35.2448 61.0278 35.2448 61.0278" fill="black"/>
<path opacity="0.1" d="M34.6686 49.7704C34.6686 49.7704 32.4425 51.3453 30.1191 51.0119Z" fill="black"/>
<path opacity="0.1" d="M36.3632 83.49C36.3632 83.49 37.0131 83.8969 38.5734 82.1172Z" fill="black"/>
<path opacity="0.1" d="M52.569 64.621C52.6322 64.2955 52.4059 63.9937 52.1928 63.7391L51.756 63.2142C51.6706 63.1068 51.5745 63.0083 51.4692 62.9202C51.206 62.7181 50.8692 62.6578 50.5956 62.4767" fill="black"/>
<defs>
<linearGradient id="paint0_linear" x1="173.117" y1="105.622" x2="173.117" y2="0.0296562" gradientUnits="userSpaceOnUse">
<stop stop-color="#808080" stop-opacity="0.25"/>
<stop offset="0.54" stop-color="#808080" stop-opacity="0.12"/>
<stop offset="1" stop-color="#808080" stop-opacity="0.1"/>
</linearGradient>
<linearGradient id="paint1_linear" x1="10446.3" y1="65744.2" x2="23442.5" y2="65744.2" gradientUnits="userSpaceOnUse">
<stop stop-color="#808080" stop-opacity="0.25"/>
<stop offset="0.54" stop-color="#808080" stop-opacity="0.12"/>
<stop offset="1" stop-color="#808080" stop-opacity="0.1"/>
</linearGradient>
</defs>
</svg>
